STARTFONT 2.3
FONT -FontForge-Fredoka One-Book-R-Normal--28-280-72-72-P-162-ISO10646-1
SIZE 28 72 72  4
FONTBOUNDINGBOX 38 35 -4 -7
COMMENT "Generated by fontforge, http://fontforge.sourceforge.net"
COMMENT "Copyright (c) 2011 Milena B Brandao (milenabbrandao@gmail.com), with Reserved Font Name "Fredoka""
STARTPROPERTIES 40
FOUNDRY "FontForge"
FAMILY_NAME "Fredoka One"
WEIGHT_NAME "Book"
SLANT "R"
SETWIDTH_NAME "Normal"
ADD_STYLE_NAME ""
PIXEL_SIZE 28
POINT_SIZE 280
RESOLUTION_X 72
RESOLUTION_Y 72
SPACING "P"
AVERAGE_WIDTH 162
CHARSET_REGISTRY "ISO10646"
CHARSET_ENCODING "1"
FONTNAME_REGISTRY ""
CHARSET_COLLECTIONS "ISO10646-1"
BITS_PER_PIXEL 4
FONT_NAME "FredokaOne-Regular"
FACE_NAME "Fredoka One"
COPYRIGHT "Copyright (c) 2011 Milena B Brandao (milenabbrandao@gmail.com), with Reserved Font Name "Fredoka""
FONT_VERSION "1.001"
FONT_ASCENT 22
FONT_DESCENT 6
UNDERLINE_POSITION -3
UNDERLINE_THICKNESS 2
X_HEIGHT 14
CAP_HEIGHT 20
RAW_ASCENT 800
RAW_DESCENT 200
NORM_SPACE 7
RELATIVE_WEIGHT 40
RELATIVE_SETWIDTH 50
SUPERSCRIPT_X 0
SUPERSCRIPT_Y 13
SUPERSCRIPT_SIZE 18
SUBSCRIPT_X 0
SUBSCRIPT_Y 3
SUBSCRIPT_SIZE 18
AVG_LOWERCASE_WIDTH 160
AVG_UPPERCASE_WIDTH 192
ENDPROPERTIES
CHARS 235
STARTCHAR space
ENCODING 32
SWIDTH 253 0
DWIDTH 7 0
BBX 1 1 0 0
BITMAP
00
ENDCHAR
STARTCHAR exclam
ENCODING 33
SWIDTH 267 0
DWIDTH 7 0
BBX 6 21 1 0
BITMAP
189940
9FFFF1
BFFFF3
BFFFF3
BFFFF3
BFFFF3
BFFFF3
BFFFF3
BFFFF3
BFFFF3
BFFFF3
BFFFF3
9FFFF1
179840
000000
013200
6FFFC1
CFFFF4
DFFFF5
BFFFF4
4DFFA0
ENDCHAR
STARTCHAR quotedbl
ENCODING 34
SWIDTH 429 0
DWIDTH 12 0
BBX 12 11 0 10
BITMAP
037720027730
1FFFD00CFFF1
4FFFF11FFFF4
4FFFF21FFFF4
3FFFF10FFFF4
2FFFE00EFFF2
0EFFB00BFFE0
0BFF8008FFB0
07FF4005FF70
02ED0000DE10
002100002200
ENDCHAR
STARTCHAR numbersign
ENCODING 35
SWIDTH 749 0
DWIDTH 21 0
BBX 21 21 0 0
BITMAP
0000001674000005750000
000000BFFF10008FFF4000
000000FFFF1000CFFF3000
000002FFFD0000EFFF1000
000004FFFB0002FFFD0000
000228FFF92226FFFC2200
01DFFFFFFFFFFFFFFFFF60
05FFFFFFFFFFFFFFFFFF70
06FFFFFFFFFFFFFFFFFF30
01789FFFE8888FFFF88500
00004FFFB0002FFFD00000
00007FFF80004FFFB00000
0466BFFFA666AFFFB65000
3FFFFFFFFFFFFFFFFFF500
8FFFFFFFFFFFFFFFFFF500
8FFFFFFFFFFFFFFFFFE100
0448FFFC4446FFFE442000
0007FFF80004FFFB000000
0009FFF60006FFF9000000
000BFFF30009FFF5000000
0007DD800005DD90000000
ENDCHAR
STARTCHAR dollar
ENCODING 36
SWIDTH 475 0
DWIDTH 13 0
BBX 13 25 0 -3
BITMAP
000005A7000000
00000EFF300000
00000FFF400000
00000FFF400000
0007DFFFEA2000
00BFFFFFFFE300
07FFFFFFFFF900
0CFFFB79FFE200
0EFFF000494000
0DFFF500000000
0AFFFFE9610000
02EFFFFFFFA200
003DFFFFFFFC00
000048DFFFFF50
00210003CFFF80
07FE30007FFF80
3FFFE513DFFF70
1EFFFFFFFFFF20
06FFFFFFFFF700
005DFFFFFE5000
00004FFF700000
00000FFF400000
00000FFF400000
00000CFE200000
00000132000000
ENDCHAR
STARTCHAR percent
ENCODING 37
SWIDTH 838 0
DWIDTH 23 0
BBX 22 23 1 -1
BITMAP
000000000000000AB20000
001698500000004FF70000
04EFFFFD200000CFE10000
2EFFFFFFC00005FF700000
8FFFCDFFF4000DFD000000
CFF600BFF7006FF6000000
DFF3008FF800DFD0000000
CFF500AFF807FF50000000
9FFE9AFFF51EFC00000000
3FFFFFFFE18FF400000000
07FFFFFF51EFB000000000
004ACC9309FF3014652000
000000002FFA05EFFFF800
000000009FF23FFFFFFF70
00000002FF90AFFFFFFFE0
0000000AFF20EFF502EFF3
0000003FF801FFF000BFF5
000000BFE101FFF100CFF4
000004FF7000DFFA58FFF2
00000CFE10008FFFFFFFD0
00005FF600001DFFFFFF40
0000BFD00000019EFFB400
00004B4000000000100000
ENDCHAR
STARTCHAR ampersand
ENCODING 38
SWIDTH 748 0
DWIDTH 21 0
BBX 21 23 0 -1
BITMAP
0000003677620000000000
00003CFFFFFFB100000000
0003EFFFFFFFFC00000000
000BFFFFFFFFFF60000000
001FFFFB44EFFFA0000000
003FFFF400BFFFB0000000
002FFFF506FFFF90000000
001FFFFAAFFFFF30000000
000CFFFFFFFFF800000000
0007FFFFFFFF8000000000
0004FFFFFFE60000000000
003EFFFFFF300002552000
01DFFFFFFF90005FFFE000
09FFFFFFFFF700BFFFF000
1EFFFFCFFFFF82FFFFC000
3FFFFC1DFFFFFEFFFF6000
4FFFFA03EFFFFFFFFD0000
3FFFFF503EFFFFFFFC8300
0EFFFFFFEFFFFFFFFFFE10
07FFFFFFFFFFFFFFFFFF40
00AFFFFFFFFFFDFFFFFF30
0005BFFFFFD8205ADFFB00
0000002331000000000000
ENDCHAR
STARTCHAR quotesingle
ENCODING 39
SWIDTH 208 0
DWIDTH 6 0
BBX 6 11 0 10
BITMAP
037720
1FFFD0
4FFFF1
4FFFF2
3FFFF1
2FFFE0
0EFFB0
0BFF80
07FF40
02ED00
002100
ENDCHAR
STARTCHAR parenleft
ENCODING 40
SWIDTH 384 0
DWIDTH 11 0
BBX 11 29 0 -7
BITMAP
00000049A800
00001BFFFF40
0000BFFFFF40
0008FFFFEC10
001EFFF70000
008FFFB00000
00DFFF400000
03FFFD000000
07FFFA000000
0AFFF7000000
0DFFF4000000
0FFFF3000000
1FFFF2000000
2FFFF1000000
2FFFF1000000
2FFFF1000000
1FFFF2000000
0EFFF3000000
0CFFF5000000
09FFF7000000
06FFFA000000
02FFFE000000
00BFFF500000
006FFFD10000
000DFFFB4200
0004FFFFFF20
00006FFFFF50
000006EFFF30
000000046300
ENDCHAR
STARTCHAR parenright
ENCODING 41
SWIDTH 384 0
DWIDTH 11 0
BBX 10 29 0 -7
BITMAP
19A8200000
7FFFF80000
8FFFFF7000
3DEFFFF400
001BFFFC00
0001EFFF40
00008FFF90
00002FFFE0
00000DFFF3
00000AFFF6
000008FFF9
000006FFFB
000005FFFC
000005FFFD
000004FFFD
000005FFFD
000005FFFC
000007FFFA
000008FFF8
00000BFFF5
00000EFFF2
00003FFFD0
00009FFF70
0002FFFF20
025DFFF900
5FFFFFE100
8FFFFE3000
6FFFC30000
0453000000
ENDCHAR
STARTCHAR asterisk
ENCODING 42
SWIDTH 503 0
DWIDTH 14 0
BBX 14 13 0 8
BITMAP
000008CC900000
00002FFFF30000
00003FFFF50000
09DA8FFFF99DA0
3FFFFFFFFFFFF5
7FFFFFFFFFFFF9
7FFFFFFFFFFFF8
06CFFFFFFFFC70
001DFFFFFFE100
009FFFFFFFFB00
01FFFFFEFFFF20
00BFFF76FFFC00
0008EA008E9100
ENDCHAR
STARTCHAR plus
ENCODING 43
SWIDTH 527 0
DWIDTH 15 0
BBX 15 14 0 1
BITMAP
0000004530000000
000009FFF6000000
00000CFFF9000000
00000CFFF9000000
00000CFFF9000000
09DDDFFFFEDDD600
3FFFFFFFFFFFFF00
4FFFFFFFFFFFFF10
2FFFFFFFFFFFFE00
05888EFFFC888300
00000CFFF9000000
00000CFFF9000000
00000BFFF8000000
000005EFD3000000
ENDCHAR
STARTCHAR comma
ENCODING 44
SWIDTH 238 0
DWIDTH 7 0
BBX 6 11 0 -5
BITMAP
002310
0CFFF7
3FFFFD
4FFFFE
3FFFFD
09EFFB
008FF7
01EFE1
1DFF60
3FF800
063000
ENDCHAR
STARTCHAR hyphen
ENCODING 45
SWIDTH 433 0
DWIDTH 12 0
BBX 12 6 0 3
BITMAP
014555555420
1EFFFFFFFFF3
4FFFFFFFFFF6
4FFFFFFFFFF6
1CFFFFFFFFE2
001222222100
ENDCHAR
STARTCHAR period
ENCODING 46
SWIDTH 237 0
DWIDTH 7 0
BBX 6 6 0 0
BITMAP
002310
0CFFF7
4FFFFD
4FFFFE
3FFFFD
09EFE5
ENDCHAR
STARTCHAR slash
ENCODING 47
SWIDTH 526 0
DWIDTH 15 0
BBX 15 24 0 -2
BITMAP
00000000008D8100
0000000004FFFE20
000000000BFFFF40
000000003FFFFE00
00000000AFFFF700
00000003FFFFE100
0000000AFFFF7000
0000002FFFFE1000
0000009FFFF80000
000002FFFFE10000
000008FFFF900000
00001EFFFF200000
00008FFFF9000000
0001EFFFF2000000
0007FFFFA0000000
001EFFFF20000000
007FFFFA00000000
00DFFFF300000000
06FFFFB000000000
0DFFFF3000000000
5FFFFB0000000000
8FFFF40000000000
3DFFC00000000000
0058200000000000
ENDCHAR
STARTCHAR zero
ENCODING 48
SWIDTH 608 0
DWIDTH 17 0
BBX 17 22 0 -1
BITMAP
0000038BCB83000000
0001AFFFFFFFA10000
001CFFFFFFFFFC1000
008FFFFFFFFFFF9000
01FFFFFFFFFFFFF200
07FFFFE626EFFFF700
0BFFFF60006FFFFB00
0FFFFF10000FFFFE00
2FFFFC00000CFFFF20
3FFFFB00000AFFFF30
4FFFFA00000AFFFF50
4FFFFA00000AFFFF40
3FFFFB00000BFFFF30
1FFFFD00000DFFFF20
0DFFFF30002FFFFE00
0AFFFFB000AFFFFB00
05FFFFFC9CFFFFF500
00DFFFFFFFFFFFD000
005FFFFFFFFFFF5000
0007FFFFFFFFF70000
00003CFFFFFC400000
000000245420000000
ENDCHAR
STARTCHAR one
ENCODING 49
SWIDTH 407 0
DWIDTH 11 0
BBX 11 22 0 -1
BITMAP
000000277300
000005EFFF20
00006FFFFF40
0007FFFFFF40
009FFFFFFF40
0AFFFFFFFF40
6FFFFFFFFF40
7FFFFFFFFF40
1DFFFEFFFF40
01993AFFFF40
00000AFFFF40
00000AFFFF40
00000AFFFF40
00000AFFFF40
00000AFFFF40
00000AFFFF40
00000AFFFF40
00000AFFFF40
00000AFFFF40
000009FFFF30
000003DFFA00
000000010000
ENDCHAR
STARTCHAR two
ENCODING 50
SWIDTH 609 0
DWIDTH 17 0
BBX 17 22 0 -1
BITMAP
0000059BCB72000000
0003DFFFFFFF800000
004EFFFFFFFFFA0000
01EFFFFFFFFFFF7000
08FFFFFFFFFFFFE100
0EFFFFC426EFFFF600
3FFFFE10007FFFFA00
4FFFFB00003FFFFC00
4FFFF900006FFFFB00
1CFFF40002DFFFF900
002310002DFFFFF400
00000006EFFFFFB000
000003BFFFFFFE2000
00018FFFFFFFD20000
002CFFFFFFFA100000
02DFFFFFFB40000000
0BFFFFFFFEEEEEDB20
2FFFFFFFFFFFFFFF80
4FFFFFFFFFFFFFFF90
1EFFFFFFFFFFFFFF80
05EFFFFFFFFFFFFD20
000111111111110000
ENDCHAR
STARTCHAR three
ENCODING 51
SWIDTH 608 0
DWIDTH 17 0
BBX 17 22 0 -1
BITMAP
0000059BCB95000000
0003DFFFFFFFD30000
003EFFFFFFFFFF3000
00CFFFFFFFFFFFE100
04FFFFFFFFFFFFF700
06FFFFD301AFFFFB00
01DFFF30002FFFFD00
0017A50245BFFFFB00
0000005FFFFFFFF500
000000AFFFFFFF8000
000000AFFFFFFD3000
0000008FFFFFFFE300
00000017ABFFFFFC00
05AB9100003EFFFF30
3FFFF800000AFFFF40
3FFFFE20001EFFFF30
0EFFFFFA89EFFFFE10
08FFFFFFFFFFFFF900
01DFFFFFFFFFFFD100
002DFFFFFFFFFC2000
00017DFFFFFD700000
000000245420000000
ENDCHAR
STARTCHAR four
ENCODING 52
SWIDTH 592 0
DWIDTH 17 0
BBX 16 21 0 0
BITMAP
0003973000058840
000DFFF7005FFFF3
003FFFFC008FFFF7
007FFFFA008FFFF7
00BFFFF6008FFFF7
00EFFFF2008FFFF7
03FFFFD0008FFFF7
07FFFFA0008FFFF7
0BFFFF60008FFFF7
0EFFFF20008FFFF7
3FFFFF8888CFFFF7
7FFFFFFFFFFFFFF7
9FFFFFFFFFFFFFF7
8FFFFFFFFFFFFFF7
2CFFFFFFFFFFFFF7
00011111118FFFF7
00000000008FFFF7
00000000008FFFF7
00000000008FFFF7
00000000007FFFF5
00000000001BEEB1
ENDCHAR
STARTCHAR five
ENCODING 53
SWIDTH 530 0
DWIDTH 15 0
BBX 15 22 0 -1
BITMAP
0006998888886000
009FFFFFFFFFF700
01FFFFFFFFFFFA00
03FFFFFFFFFFFA00
05FFFFFFFFFFF600
07FFFFA555553000
09FFFF6000000000
0BFFFFA862000000
0DFFFFFFFFA10000
0FFFFFFFFFFD2000
2FFFFFFFFFFFD100
3FFFFFFFFFFFF800
07EFFE77DFFFFD00
001671002FFFFF10
000000000DFFFF20
03DE70003FFFFF00
2EFFFDABFFFFFC00
8FFFFFFFFFFFF600
4FFFFFFFFFFFB000
05FFFFFFFFFC1000
002AEFFFFE810000
0000145540000000
ENDCHAR
STARTCHAR six
ENCODING 54
SWIDTH 560 0
DWIDTH 16 0
BBX 15 22 0 -1
BITMAP
0000000004677400
0000002AEFFFFF30
000008FFFFFFFF60
0000AFFFFFFFFF60
0009FFFFFFFFFF20
004FFFFFFD976300
00CFFFFE50000000
04FFFFE300000000
0AFFFF8232000000
0DFFFFEFFFD60000
1FFFFFFFFFFFB100
3FFFFFFFFFFFFC00
4FFFFFFFFFFFFF60
4FFFFF933AFFFFC0
3FFFFD0001FFFFE0
1FFFFD0001FFFFE0
0BFFFF945BFFFFB0
06FFFFFFFFFFFF50
00CFFFFFFFFFFB00
002DFFFFFFFFC100
00019EFFFFE70000
0000003553000000
ENDCHAR
STARTCHAR seven
ENCODING 55
SWIDTH 561 0
DWIDTH 16 0
BBX 16 21 0 0
BITMAP
0478888888887720
5FFFFFFFFFFFFFE1
8FFFFFFFFFFFFFF4
8FFFFFFFFFFFFFF3
5FFFFFFFFFFFFFF1
046777777EFFFFA0
000000003FFFFF40
00000000DFFFFC00
00000008FFFFF300
0000003FFFFF9000
000000CFFFFE1000
000007FFFFF50000
00001EFFFFB00000
00007FFFFF300000
0000CFFFF9000000
0002FFFFF3000000
0006FFFFC0000000
0008FFFF70000000
000AFFFF50000000
000AFFFF40000000
0004DFFB00000000
ENDCHAR
STARTCHAR eight
ENCODING 56
SWIDTH 582 0
DWIDTH 16 0
BBX 16 22 0 -1
BITMAP
000016BDEC820000
0004DFFFFFFF7000
004FFFFFFFFFF800
01DFFFFFFFFFFF30
06FFFFFEDFFFFFA0
09FFFFA006FFFFD0
0AFFFF5000FFFFE0
08FFFFC329FFFFC0
02FFFFFFFFFFFF60
007FFFFFFFFFFB00
008FFFFFFFFFFC10
05FFFFFFFFFFFF90
0DFFFFE87CFFFFF2
3FFFFE1000BFFFF7
4FFFFB00006FFFF8
3FFFFE1000AFFFF7
0EFFFFD76AFFFFF4
09FFFFFFFFFFFFD0
01DFFFFFFFFFFF40
002CFFFFFFFFE400
00007EFFFFF92000
0000003554100000
ENDCHAR
STARTCHAR nine
ENCODING 57
SWIDTH 560 0
DWIDTH 16 0
BBX 15 21 0 0
BITMAP
000028BDCA500000
0008FFFFFFFD3000
00AFFFFFFFFFE200
06FFFFFFFFFFFC00
0DFFFFECDFFFFF40
2FFFFD1007FFFF90
4FFFF90002FFFFC0
3FFFFD1006FFFFE0
0EFFFFDACFFFFFF0
07FFFFFFFFFFFFE0
00AFFFFFFFFFFFD0
0008FFFFFFFFFFA0
000027AB9CFFFF70
000000002FFFFF30
00000002DFFFFB00
0000027EFFFFF400
03CEFFFFFFFF9000
0AFFFFFFFFFC1000
0BFFFFFFFFC10000
0AFFFFFFE7000000
04EFEDB610000000
ENDCHAR
STARTCHAR colon
ENCODING 58
SWIDTH 238 0
DWIDTH 7 0
BBX 6 15 0 0
BITMAP
001200
0BFFF6
3FFFFD
4FFFFE
3FFFFD
0AFFE6
000100
000000
000000
002310
0BFFF7
3FFFFD
4FFFFE
3FFFFD
09EFE5
ENDCHAR
STARTCHAR semicolon
ENCODING 59
SWIDTH 237 0
DWIDTH 7 0
BBX 6 20 0 -5
BITMAP
001200
0BFFE6
4FFFFD
4FFFFE
3FFFFD
0AFFE6
000100
000000
000000
002310
0CFFF7
4FFFFD
4FFFFE
3FFFFD
09EFFB
008FF7
01EFE1
1CFF70
3FF800
173000
ENDCHAR
STARTCHAR less
ENCODING 60
SWIDTH 627 0
DWIDTH 18 0
BBX 18 20 0 0
BITMAP
000000000000002100
0000000000002AFE30
000000000008FFFFB0
0000000005DFFFFFF1
00000002BFFFFFFF90
0000018FFFFFFFE600
00005DFFFFFFF81000
003BFFFFFFFB200000
08FFFFFFFD50000000
6FFFFFFF8100000000
8FFFFFF80000000000
4FFFFFFFC300000000
04DFFFFFFF91000000
0007EFFFFFFE600000
00002AFFFFFFFC4000
0000004CFFFFFFFA10
000000007EFFFFFFD0
00000000019FFFFFF1
000000000003CFFF90
00000000000006CB10
ENDCHAR
STARTCHAR equal
ENCODING 61
SWIDTH 478 0
DWIDTH 13 0
BBX 13 11 0 1
BITMAP
02455555555300
1EFFFFFFFFFF70
4FFFFFFFFFFFA0
3FFFFFFFFFFF90
09DDDDDDDDDC40
00000000000000
02566666666400
2FFFFFFFFFFF60
4FFFFFFFFFFFA0
3FFFFFFFFFFF90
09CCCCCCCCCB30
ENDCHAR
STARTCHAR greater
ENCODING 62
SWIDTH 627 0
DWIDTH 18 0
BBX 18 20 0 0
BITMAP
003100000000000000
09FE60000000000000
4FFFFC400000000000
8FFFFFFA1000000000
3EFFFFFFE700000000
01AFFFFFFFD4000000
0004CFFFFFFFA20000
000006EFFFFFFE7000
00000019FFFFFFFD30
000000003CFFFFFFE0
0000000002DFFFFFF1
000000007EFFFFFFC0
0000004DFFFFFFF910
00002AFFFFFFFC3000
0018FFFFFFFE600000
04DFFFFFFF91000000
5FFFFFFFB300000000
8FFFFFE50000000000
2EFFF8100000000000
05DA20000000000000
ENDCHAR
STARTCHAR question
ENCODING 63
SWIDTH 512 0
DWIDTH 14 0
BBX 14 21 0 0
BITMAP
00029DFFD92000
007FFFFFFFE500
05FFFFFFFFFF40
1EFFFFFFFFFFD1
6FFFFD88CFFFF5
8FFFF1001EFFF8
19FF90000CFFF9
001300004FFFF7
00000039FFFFF3
000006FFFFFFA0
00000EFFFFFA10
00002FFFFD5000
00001FFFF50000
0000059A700000
00000000000000
00000023100000
00002EFFE30000
00008FFFF90000
00009FFFFA0000
00007FFFF80000
00001BFFC20000
ENDCHAR
STARTCHAR at
ENCODING 64
SWIDTH 908 0
DWIDTH 25 0
BBX 25 23 0 -4
BITMAP
00000000379AA9852000000000
0000006CFFFFFFFFFC61000000
00002CFFFFFFFFFFFFFD400000
0003EFFFFFECCDEFFFFFF70000
001EFFFE830000037DFFFF6000
00AFFFC200154105528FFFE200
03FFFC1008FFFDBFFB06FFFA00
0AFFF301BFFFFFFFFB00BFFF10
0EFFB00AFFFFFFFFF9004FFF50
2FFF602FFFD55EFFF7000EFF80
4FFF407FFF3007FFF5000DFFA0
4FFF308FFF2009FFF3000CFFA0
3FFF407FFFB48FFFF1000DFF90
2FFF603FFFFFFFFFE0001FFF80
0EFFA009FFFFFFFFC0007FFF40
0BFFE1009FFFCEFFA003EFFE10
06FFF90002430DFFC69EFFF700
00DFFF70000009FFFFFFFFB000
004FFFFB410002EFFFFFFA1000
0008FFFFFFEDA03BFFFC500000
00006FFFFFFFF1001210000000
000002AFFFFFF1000000000000
00000001579950000000000000
ENDCHAR
STARTCHAR A
ENCODING 65
SWIDTH 765 0
DWIDTH 21 0
BBX 21 22 0 -1
BITMAP
0000000003760000000000
000000004FFFA000000000
00000000CFFFF400000000
00000005FFFFFB00000000
0000000CFFFFFF30000000
0000004FFFFFFFA0000000
000000CFFFFFFFF3000000
000004FFFFFFFFFA000000
00000BFFFFEFFFFF200000
00003FFFFF5DFFFF900000
0000BFFFFC06FFFFF20000
0003FFFFF500DFFFF90000
000AFFFFF888CFFFFF2000
002FFFFFFFFFFFFFFF8000
00AFFFFFFFFFFFFFFFE100
02FFFFFFFFFFFFFFFFF800
09FFFFE9999999BFFFFE10
1FFFFF600000001EFFFF70
7FFFFE0000000008FFFFD0
6FFFF70000000001EFFFC0
07EFC100000000007FFB20
0013100000000000032000
ENDCHAR
STARTCHAR B
ENCODING 66
SWIDTH 646 0
DWIDTH 18 0
BBX 17 21 1 0
BITMAP
168888888874000000
AFFFFFFFFFFFD30000
DFFFFFFFFFFFFE3000
DFFFFFFFFFFFFFD100
DFFFFFFFFFFFFFF600
DFFFF76667CFFFFA00
DFFFF100003FFFFC00
DFFFF100004FFFFB00
DFFFF1029BEFFFF700
DFFFF10BFFFFFFE100
DFFFF10CFFFFFFE200
DFFFF108FFFFFFFA00
DFFFF100347FFFFF10
DFFFF1000009FFFF50
DFFFF1000009FFFF50
DFFFF100003EFFFF40
DFFFFFFFFFFFFFFF10
DFFFFFFFFFFFFFF900
DFFFFFFFFFFFFFD100
CFFFFFFFFFFFFD2000
4DEFFFFFFFEB600000
ENDCHAR
STARTCHAR C
ENCODING 67
SWIDTH 679 0
DWIDTH 19 0
BBX 19 22 0 -1
BITMAP
0000000048AA97200000
0000018EFFFFFFFC4000
00005EFFFFFFFFFFF900
0006FFFFFFFFFFFFFF30
005FFFFFFFFFFFFFFF20
01EFFFFFE8546BFFF800
07FFFFF91000004B8000
0CFFFFA0000000000000
1FFFFF20000000000000
3FFFFC00000000000000
4FFFFA00000000000000
3FFFFB00000000000000
2FFFFE00000000000000
0DFFFF50000000000000
09FFFFE2000000031000
02FFFFFE610003BFE200
009FFFFFFECBDFFFFC00
001CFFFFFFFFFFFFFF30
0001BFFFFFFFFFFFFE20
000007EFFFFFFFFFC300
00000018DFFFFFB50000
00000000013430000000
ENDCHAR
STARTCHAR D
ENCODING 68
SWIDTH 704 0
DWIDTH 20 0
BBX 18 21 1 0
BITMAP
168888887520000000
AFFFFFFFFFFC500000
DFFFFFFFFFFFFB1000
DFFFFFFFFFFFFFD200
DFFFFFFFFFFFFFFC10
DFFFF7778BFFFFFF90
DFFFF100004DFFFFF2
DFFFF1000002EFFFF7
DFFFF10000007FFFFC
DFFFF10000001FFFFE
DFFFF10000000FFFFF
DFFFF10000000FFFFE
DFFFF10000004FFFFC
DFFFF1000000BFFFF9
DFFFF1000009FFFFF4
DFFFF10015CFFFFFB0
DFFFFFFFFFFFFFFE30
DFFFFFFFFFFFFFF500
DFFFFFFFFFFFFF5000
CFFFFFFFFFFFB30000
4DEFFFFFEC84000000
ENDCHAR
STARTCHAR E
ENCODING 69
SWIDTH 638 0
DWIDTH 18 0
BBX 17 21 1 0
BITMAP
068888888888887200
9FFFFFFFFFFFFFFE00
CFFFFFFFFFFFFFFF20
DFFFFFFFFFFFFFFF20
DFFFFFFFFFFFFFFD00
DFFFF7777777776100
DFFFF1000000000000
DFFFF1000000000000
DFFFFBBBBBBA400000
DFFFFFFFFFFFE00000
DFFFFFFFFFFFF10000
DFFFFFFFFFFFF00000
DFFFFFFFFFFFA00000
DFFFF4333332000000
DFFFF1000000000000
DFFFF1000000000000
DFFFFEEEEEEEEEE700
DFFFFFFFFFFFFFFF10
DFFFFFFFFFFFFFFF20
CFFFFFFFFFFFFFFF10
4DFFFFFFFFFFFFE800
ENDCHAR
STARTCHAR F
ENCODING 70
SWIDTH 637 0
DWIDTH 18 0
BBX 17 21 1 0
BITMAP
068888888888887200
9FFFFFFFFFFFFFFE00
CFFFFFFFFFFFFFFF20
DFFFFFFFFFFFFFFF20
DFFFFFFFFFFFFFFD00
DFFFF7777777776100
DFFFF1000000000000
DFFFF1000000000000
DFFFFBBBBBBA400000
DFFFFFFFFFFFE00000
DFFFFFFFFFFFF10000
DFFFFFFFFFFFF00000
DFFFFFFFFFFFA00000
DFFFF5444443000000
DFFFF1000000000000
DFFFF1000000000000
DFFFF1000000000000
DFFFF1000000000000
DFFFF1000000000000
CFFFF0000000000000
4DFE70000000000000
ENDCHAR
STARTCHAR G
ENCODING 71
SWIDTH 714 0
DWIDTH 20 0
BBX 19 22 0 -1
BITMAP
000000038BCDC9400000
000003BFFFFFFFFD5000
00007FFFFFFFFFFFF900
0008FFFFFFFFFFFFFF20
006FFFFFFFFFFFFFFD00
01EFFFFFB5224AFFF400
08FFFFF6000000384000
0DFFFF80000000000000
1FFFFF10002566666400
3FFFFB0000EFFFFFFF90
4FFFFA0001FFFFFFFFD0
3FFFFB0001FFFFFFFFD0
2FFFFF10006BBBFFFFD0
0DFFFF70000001FFFFD0
08FFFFF4000001FFFFD0
02FFFFFF710002FFFFD0
008FFFFFFECBDFFFFFD0
000BFFFFFFFFFFFFFFC0
0001BFFFFFFFFFFFFF50
000008FFFFFFFFFFE500
00000029EFFFFFC81000
00000000023431000000
ENDCHAR
STARTCHAR H
ENCODING 72
SWIDTH 699 0
DWIDTH 20 0
BBX 18 21 1 0
BITMAP
168720000000048740
AFFFD00000004FFFF4
DFFFF10000007FFFF6
DFFFF10000008FFFF7
DFFFF10000008FFFF7
DFFFF10000008FFFF7
DFFFF10000008FFFF7
DFFFF10000008FFFF7
DFFFF5555555AFFFF7
DFFFFFFFFFFFFFFFF7
DFFFFFFFFFFFFFFFF7
DFFFFFFFFFFFFFFFF7
DFFFFCCCCCCCEFFFF7
DFFFF10000008FFFF7
DFFFF10000008FFFF7
DFFFF10000008FFFF7
DFFFF10000008FFFF7
DFFFF10000008FFFF7
DFFFF10000007FFFF7
CFFFF00000006FFFF6
4DED700000001BEEB1
ENDCHAR
STARTCHAR I
ENCODING 73
SWIDTH 257 0
DWIDTH 7 0
BBX 6 21 1 0
BITMAP
168720
AFFFD0
DFFFF1
DFFFF1
DFFFF1
DFFFF1
DFFFF1
DFFFF1
DFFFF1
DFFFF1
DFFFF1
DFFFF1
DFFFF1
DFFFF1
DFFFF1
DFFFF1
DFFFF1
DFFFF1
DFFFF1
CFFFF0
4DFE70
ENDCHAR
STARTCHAR J
ENCODING 74
SWIDTH 549 0
DWIDTH 15 0
BBX 15 22 0 -1
BITMAP
0000000000587300
0000000006FFFE10
000000000AFFFF30
000000000BFFFF40
000000000BFFFF40
000000000BFFFF40
000000000BFFFF40
000000000BFFFF40
000000000BFFFF40
000000000BFFFF40
000000000BFFFF40
000000000BFFFF40
000000000BFFFF40
000000000BFFFF40
005710000DFFFF30
09FFC2007FFFFF10
5FFFFFCDFFFFFB00
7FFFFFFFFFFFF400
1DFFFFFFFFFF8000
02DFFFFFFFF90000
0017DFFFFC400000
0000024310000000
ENDCHAR
STARTCHAR K
ENCODING 75
SWIDTH 639 0
DWIDTH 18 0
BBX 16 22 1 -1
BITMAP
168720000002BA20
AFFFD000001DFFE3
DFFFF10000CFFFFC
DFFFF1000AFFFFFA
DFFFF1008FFFFFE2
DFFFF106FFFFFE30
DFFFF15FFFFFE400
DFFFF5FFFFFE4000
DFFFFEFFFFE40000
DFFFFFFFFE300000
DFFFFFFFF3000000
DFFFFFFFFA000000
DFFFFFFFFFB00000
DFFFF9FFFFFB0000
DFFFF1AFFFFFB000
DFFFF10CFFFFFA00
DFFFF101DFFFFF90
DFFFF1002EFFFFF6
DFFFF10003EFFFFD
CFFFF000005FFFF8
4DFE70000006FF80
0000000000002200
ENDCHAR
STARTCHAR L
ENCODING 76
SWIDTH 587 0
DWIDTH 16 0
BBX 15 21 1 0
BITMAP
1687200000000000
AFFFD00000000000
DFFFF10000000000
DFFFF10000000000
DFFFF10000000000
DFFFF10000000000
DFFFF10000000000
DFFFF10000000000
DFFFF10000000000
DFFFF10000000000
DFFFF10000000000
DFFFF10000000000
DFFFF10000000000
DFFFF10000000000
DFFFF10000000000
DFFFF10000000000
DFFFF32222222100
DFFFFFFFFFFFFF60
DFFFFFFFFFFFFFB0
CFFFFFFFFFFFFFA0
4DFFFFFFFFFFFD50
ENDCHAR
STARTCHAR M
ENCODING 77
SWIDTH 870 0
DWIDTH 24 0
BBX 23 21 1 0
BITMAP
167610000000000000577200
AFFFD100000000000AFFFE10
DFFFFB00000000007FFFFF30
DFFFFF8000000004FFFFFF40
DFFFFFF40000001EFFFFFF40
DFFFFFFE200000BFFFFFFF40
DFFFFFFFC00008FFFFFFFF40
DFFFFFFFF9004FFFFFFFFF40
DFFFFFFFFF52EFFFFFFFFF40
DFFFFAFFFFECFFFFDCFFFF40
DFFFF2DFFFFFFFFF3BFFFF40
DFFFF13FFFFFFFF70BFFFF40
DFFFF107FFFFFFB00BFFFF40
DFFFF100BFFFFE200BFFFF40
DFFFF1001DFFF5000BFFFF40
DFFFF100029A40000BFFFF40
DFFFF100000000000BFFFF40
DFFFF100000000000BFFFF40
DFFFF100000000000BFFFF30
CFFFE000000000000AFFFF20
4DED60000000000003CEE800
ENDCHAR
STARTCHAR N
ENCODING 78
SWIDTH 720 0
DWIDTH 20 0
BBX 19 21 1 0
BITMAP
16761000000001676100
AFFFE20000000AFFFC00
DFFFFB0000000DFFFF00
DFFFFF8000000DFFFF10
DFFFFFF400000DFFFF10
DFFFFFFE10000DFFFF10
DFFFFFFFB0000DFFFF10
DFFFFFFFF7000DFFFF10
DFFFFFFFFF300DFFFF10
DFFFFCFFFFD10DFFFF10
DFFFF3EFFFFB0DFFFF10
DFFFF15FFFFF7DFFFF10
DFFFF108FFFFFFFFFF10
DFFFF100BFFFFFFFFF10
DFFFF1002EFFFFFFFF10
DFFFF10004FFFFFFFF10
DFFFF100008FFFFFFF10
DFFFF100000BFFFFFF10
DFFFF1000001EFFFFF10
CFFFE00000004FFFFE00
5DFE7000000006EFE700
ENDCHAR
STARTCHAR O
ENCODING 79
SWIDTH 775 0
DWIDTH 22 0
BBX 21 22 0 -1
BITMAP
000000027ABB9510000000
000003BFFFFFFFF8100000
00006FFFFFFFFFFFD30000
0007FFFFFFFFFFFFFE3000
005FFFFFFFFFFFFFFFE200
00DFFFFFC6348EFFFFFA00
06FFFFF8000001CFFFFF30
0BFFFFA00000001DFFFF80
1FFFFF2000000006FFFFC0
3FFFFC0000000001FFFFD0
4FFFFA0000000000FFFFF0
4FFFFB0000000000FFFFE0
2FFFFE0000000003FFFFD0
0EFFFF5000000008FFFF90
0AFFFFD20000004FFFFF50
04FFFFFD400006FFFFFD00
00AFFFFFFDAAEFFFFFF600
001DFFFFFFFFFFFFFFA000
0002DFFFFFFFFFFFFB1000
00001BFFFFFFFFFF900000
0000005BFFFFFEA3000000
0000000013543000000000
ENDCHAR
STARTCHAR P
ENCODING 80
SWIDTH 632 0
DWIDTH 18 0
BBX 16 21 1 0
BITMAP
1688888887300000
AFFFFFFFFFFD5000
DFFFFFFFFFFFF900
DFFFFFFFFFFFFF80
DFFFFFFFFFFFFFF3
DFFFF7777AFFFFF9
DFFFF100006FFFFD
DFFFF100000FFFFE
DFFFF100001FFFFE
DFFFF100008FFFFC
DFFFFA999CFFFFF8
DFFFFFFFFFFFFFE2
DFFFFFFFFFFFFF60
DFFFFFFFFFFFF600
DFFFFFFFFFFA2000
DFFFF65554100000
DFFFF10000000000
DFFFF10000000000
DFFFF10000000000
CFFFF00000000000
4DED700000000000
ENDCHAR
STARTCHAR Q
ENCODING 81
SWIDTH 830 0
DWIDTH 23 0
BBX 23 22 0 -1
BITMAP
000000027ABB951000000000
000003BFFFFFFFF810000000
00006FFFFFFFFFFFD3000000
0007FFFFFFFFFFFFFE300000
005FFFFFFFFFFFFFFFE20000
00DFFFFFC6348EFFFFFA0000
06FFFFF8000001CFFFFF2000
0BFFFFA00000001DFFFF7000
1FFFFF2000000006FFFFB000
3FFFFC0000000001FFFFD000
4FFFFA0000000000FFFFF000
4FFFFB0000000000FFFFE000
2FFFFE0000000003FFFFD000
0EFFFF5000000008FFFFA000
0AFFFFD20000004FFFFF5000
04FFFFFD400006FFFFFF4000
00AFFFFFFDAAEFFFFFFFF800
001DFFFFFFFFFFFFFFFFFF80
0002DFFFFFFFFFFFFFFFFFB0
00001BFFFFFFFFFF8BFFFF40
0000005BFFFFFEA3006EF900
000000001345300000013000
ENDCHAR
STARTCHAR R
ENCODING 82
SWIDTH 631 0
DWIDTH 18 0
BBX 17 22 1 -1
BITMAP
168888888740000000
AFFFFFFFFFFD500000
DFFFFFFFFFFFFA0000
DFFFFFFFFFFFFF9000
DFFFFFFFFFFFFFF300
DFFFF7777AFFFFF900
DFFFF100006FFFFD00
DFFFF100000FFFFF00
DFFFF100000FFFFF00
DFFFF100008FFFFD00
DFFFFA999CFFFFF900
DFFFFFFFFFFFFFF200
DFFFFFFFFFFFFF7000
DFFFFFFFFFFFFF1000
DFFFFFFFFFFFFF8000
DFFFF65558FFFFE000
DFFFF10001EFFFF600
DFFFF100009FFFFC00
DFFFF100003FFFFF20
CFFFF000000BFFFF20
4DED70000003EFC300
000000000000110000
ENDCHAR
STARTCHAR S
ENCODING 83
SWIDTH 583 0
DWIDTH 16 0
BBX 16 22 0 -1
BITMAP
000028BCCB830000
0008FFFFFFFFB200
008FFFFFFFFFFE20
03FFFFFFFFFFFF60
0AFFFFFCCFFFFE10
0DFFFF5002CFF400
0EFFFF1000032000
0CFFFF9100000000
08FFFFFEB8400000
02EFFFFFFFFE9200
005FFFFFFFFFFE40
00029FFFFFFFFFD0
0000016AEFFFFFF5
0000000004DFFFF8
02CF9000006FFFF9
0CFFFB10009FFFF8
4FFFFFD659FFFFF5
1EFFFFFFFFFFFFE0
04FFFFFFFFFFFF50
004EFFFFFFFFE500
00018EFFFFE92000
0000002442000000
ENDCHAR
STARTCHAR T
ENCODING 84
SWIDTH 731 0
DWIDTH 20 0
BBX 20 21 0 0
BITMAP
16888888888888888883
7FFFFFFFFFFFFFFFFFFE
8FFFFFFFFFFFFFFFFFFF
7FFFFFFFFFFFFFFFFFFE
06888889FFFFD8888873
00000003FFFFA0000000
00000003FFFFA0000000
00000003FFFFA0000000
00000003FFFFA0000000
00000003FFFFA0000000
00000003FFFFA0000000
00000003FFFFA0000000
00000003FFFFA0000000
00000003FFFFA0000000
00000003FFFFA0000000
00000003FFFFA0000000
00000003FFFFA0000000
00000003FFFFA0000000
00000003FFFFA0000000
00000002FFFF90000000
000000009EFD30000000
ENDCHAR
STARTCHAR U
ENCODING 85
SWIDTH 726 0
DWIDTH 20 0
BBX 19 22 1 -1
BITMAP
16872000000000687200
AFFFD000000008FFFE10
DFFFF10000000BFFFF30
DFFFF20000000BFFFF30
DFFFF20000000BFFFF30
DFFFF20000000BFFFF30
DFFFF20000000BFFFF30
DFFFF20000000BFFFF30
DFFFF20000000BFFFF30
DFFFF20000000BFFFF30
DFFFF20000000BFFFF30
DFFFF20000000BFFFF30
CFFFF40000000DFFFF20
AFFFF70000002FFFFE00
6FFFFD0000009FFFFB00
1FFFFFA10006FFFFF600
09FFFFFEBADFFFFFE000
01EFFFFFFFFFFFFF5000
004FFFFFFFFFFFF80000
0004EFFFFFFFFF800000
000018EFFFFEA3000000
00000002453100000000
ENDCHAR
STARTCHAR V
ENCODING 86
SWIDTH 783 0
DWIDTH 22 0
BBX 22 21 0 0
BITMAP
006A50000000000006A500
2DFFF200000000003FFFC1
8FFFF90000000000AFFFF7
5FFFFF1000000002FFFFF4
0DFFFF8000000009FFFFC0
06FFFFE10000001FFFFF40
00DFFFF60000008FFFFC00
006FFFFD000001EFFFF500
000DFFFF500007FFFFC000
0006FFFFC0000DFFFF5000
0000DFFFF4005FFFFC0000
00006FFFFB00CFFFF50000
00000EFFFF34FFFFD00000
000007FFFFABFFFF500000
000001EFFFFFFFFD000000
0000007FFFFFFFF6000000
0000001EFFFFFFD0000000
00000007FFFFFF60000000
00000001EFFFFD00000000
000000007FFFF600000000
0000000008EE7000000000
ENDCHAR
STARTCHAR W
ENCODING 87
SWIDTH 999 0
DWIDTH 28 0
BBX 28 21 0 0
BITMAP
017A60000000177100000006A710
3EFFF2000001EFFD1000003FFFE3
8FFFF8000008FFFF7000009FFFF8
5FFFFD00000DFFFFC00000DFFFF4
1EFFFF30003FFFFFF20003FFFFE0
0AFFFF80008FFFFFF70008FFFF90
05FFFFD000DFFFFFFC000DFFFF40
00EFFFF203FFFFFFFF203FFFFE00
009FFFF708FFFFFFFF708FFFF900
004FFFFC0DFFFFFFFFC0DFFFF300
000EFFFF5FFFFCDFFFF5FFFFD000
0009FFFFEFFFF78FFFFDFFFF8000
0003FFFFFFFFF22FFFFFFFFF3000
0000DFFFFFFFB00CFFFFFFFD0000
00008FFFFFFF6007FFFFFFF80000
00003FFFFFFF1002FFFFFFF20000
00000DFFFFFB0000CFFFFFC00000
000008FFFFF600007FFFFF700000
000002FFFFF100002FFFFF200000
000000BFFFA000000BFFFB000000
0000002BEB10000002BEB2000000
ENDCHAR
STARTCHAR X
ENCODING 88
SWIDTH 741 0
DWIDTH 21 0
BBX 21 22 0 -1
BITMAP
02BF700000000000AF9100
2DFFF7000000000AFFFB00
8FFFFF500000008FFFFF40
4FFFFFE3000006FFFFFE10
08FFFFFE20004FFFFFF500
009FFFFFD103EFFFFF6000
000AFFFFFC2EFFFFF70000
0000BFFFFFFFFFFF900000
00001CFFFFFFFFFA000000
000002DFFFFFFFB0000000
0000003FFFFFFE10000000
000000BFFFFFFF80000000
00000AFFFFFFFFF7000000
00009FFFFFFFFFFF600000
0008FFFFFD5FFFFFF40000
006FFFFFE305FFFFFE3000
05FFFFFF40007FFFFFE200
2EFFFFF6000009FFFFFD00
8FFFFF80000000BFFFFF40
3FFFF9000000001CFFFD10
04EFA00000000002DFC200
0013000000000000130000
ENDCHAR
STARTCHAR Y
ENCODING 89
SWIDTH 686 0
DWIDTH 19 0
BBX 19 22 0 -1
BITMAP
007B50000000004C9200
1DFFF300000001EFFE30
8FFFFD0000000AFFFFB0
5FFFFF7000004FFFFF80
0BFFFFF20001DFFFFD10
02EFFFFB0008FFFFF400
006FFFFF503FFFFF9000
000BFFFFE1CFFFFD1000
0002EFFFFDFFFFF40000
00006FFFFFFFFF900000
00000BFFFFFFFD100000
000002EFFFFFF4000000
0000006FFFFF90000000
0000000EFFFF20000000
0000000DFFFF10000000
0000000DFFFF10000000
0000000DFFFF10000000
0000000DFFFF10000000
0000000DFFFF10000000
0000000CFFFF10000000
00000005EFF800000000
00000000010000000000
ENDCHAR
STARTCHAR Z
ENCODING 90
SWIDTH 643 0
DWIDTH 18 0
BBX 18 22 0 -1
BITMAP
038888888888888400
1FFFFFFFFFFFFFFF60
4FFFFFFFFFFFFFFFD0
4FFFFFFFFFFFFFFFC0
1EFFFFFFFFFFFFFF50
014555555AFFFFFA00
000000003FFFFFD100
00000001CFFFFF3000
00000009FFFFF70000
0000005FFFFFB00000
000002EFFFFE200000
00000BFFFFF5000000
00007FFFFF90000000
0003FFFFFC00000000
001DFFFFE300000000
00AFFFFF6000000000
06FFFFFFCCCCCCCB60
1EFFFFFFFFFFFFFFF2
4FFFFFFFFFFFFFFFF4
2FFFFFFFFFFFFFFFF3
06EFFFFFFFFFFFFFA0
000111111111111000
ENDCHAR
STARTCHAR bracketleft
ENCODING 91
SWIDTH 348 0
DWIDTH 10 0
BBX 9 29 1 -7
BITMAP
28AAAAA800
BFFFFFFF40
DFFFFFFF50
DFFFFFFF30
DFFFC66400
DFFFA00000
DFFFA00000
DFFFA00000
DFFFA00000
DFFFA00000
DFFFA00000
DFFFA00000
DFFFA00000
DFFFA00000
DFFFA00000
DFFFA00000
DFFFA00000
DFFFA00000
DFFFA00000
DFFFA00000
DFFFA00000
DFFFA00000
DFFFA00000
DFFFA00000
DFFFDBB800
DFFFFFFF40
CFFFFFFF50
9FFFFFFF20
0455555300
ENDCHAR
STARTCHAR backslash
ENCODING 92
SWIDTH 528 0
DWIDTH 15 0
BBX 15 24 0 -2
BITMAP
03AD600000000000
4FFFE10000000000
8FFFF80000000000
2FFFFE1000000000
0AFFFF7000000000
03FFFFE100000000
00BFFFF600000000
004FFFFD00000000
000BFFFF60000000
0004FFFFD0000000
0000CFFFF5000000
00005FFFFC000000
00000DFFFF500000
000005FFFFC00000
000000DFFFF40000
0000006FFFFB0000
0000000DFFFF3000
00000007FFFFA000
00000001EFFFF300
000000007FFFFA00
000000001EFFFF10
0000000008FFFF50
0000000001EFFB10
0000000000484000
ENDCHAR
STARTCHAR bracketright
ENCODING 93
SWIDTH 348 0
DWIDTH 10 0
BBX 9 29 0 -7
BITMAP
29AAAA9710
8FFFFFFF70
9FFFFFFF90
7FFFFFFF90
0566EFFF90
0000EFFF90
0000EFFF90
0000EFFF90
0000EFFF90
0000EFFF90
0000EFFF90
0000EFFF90
0000EFFF90
0000EFFF90
0000EFFF90
0000EFFF90
0000EFFF90
0000EFFF90
0000EFFF90
0000EFFF90
0000EFFF90
0000EFFF90
0000EFFF90
0000EFFF90
29BBFFFF90
8FFFFFFF90
9FFFFFFF90
6FFFFFFF50
0455555300
ENDCHAR
STARTCHAR asciicircum
ENCODING 94
SWIDTH 526 0
DWIDTH 15 0
BBX 13 9 1 7
BITMAP
00000130000000
00002DFB000000
0002DFFFB00000
002DFFFFFB0000
02DFFFFFFFB000
2DFFFFCFFFFB00
BFFFF70AFFFF70
9FFF7000AFFF50
1AF700000AF700
ENDCHAR
STARTCHAR underscore
ENCODING 95
SWIDTH 826 0
DWIDTH 23 0
BBX 23 5 0 -7
BITMAP
167777777777777777777610
7FFFFFFFFFFFFFFFFFFFFF90
8FFFFFFFFFFFFFFFFFFFFFA0
6FFFFFFFFFFFFFFFFFFFFF80
056666666666666666666510
ENDCHAR
STARTCHAR grave
ENCODING 96
SWIDTH 482 0
DWIDTH 14 0
BBX 9 6 2 16
BITMAP
0395100000
0DFFFB6200
3FFFFFFFA0
3FFFFFFFD0
039EFFFFA0
000048DF30
ENDCHAR
STARTCHAR a
ENCODING 97
SWIDTH 596 0
DWIDTH 17 0
BBX 16 15 0 0
BITMAP
0000069B9306BB81
0003DFFFFF9FFFF6
004EFFFFFFFFFFF8
01EFFFFFFFFFFFF8
09FFFFFFFFFFFFF8
0EFFFFB43AFFFFF8
3FFFFD1000CFFFF8
4FFFFA00008FFFF8
3FFFFC0000BFFFF8
1FFFFF9117FFFFF8
0AFFFFFFFFFFFFF8
03FFFFFFFFFFFFF8
006FFFFFFFFFFFF8
0006FFFFFFCFFFF7
000029DEC709DEB2
ENDCHAR
STARTCHAR b
ENCODING 98
SWIDTH 592 0
DWIDTH 17 0
BBX 15 22 1 0
BITMAP
2898200000000000
BFFFD00000000000
DFFFF00000000000
DFFFF00000000000
DFFFF00000000000
DFFFF00000000000
DFFFF00000000000
DFFFF16AA8300000
DFFFFCFFFFF90000
DFFFFFFFFFFFB000
DFFFFFFFFFFFF800
DFFFFFFFFFFFFF20
DFFFFE736EFFFF80
DFFFF60006FFFFB0
DFFFF20001FFFFD0
DFFFF40004FFFFC0
DFFFFD303DFFFF90
DFFFFFFFFFFFFF40
DFFFFFFFFFFFFB00
DFFFFFFFFFFFD100
CFFFEEFFFFFC2000
5DED62ADEC600000
ENDCHAR
STARTCHAR c
ENCODING 99
SWIDTH 517 0
DWIDTH 14 0
BBX 14 16 0 -1
BITMAP
000005ADDC8300
0003DFFFFFFF91
005FFFFFFFFFF9
02EFFFFFFFFFFA
0AFFFFFFFFFFF4
1EFFFFC426EF70
3FFFFE10000200
4FFFFC00000000
3FFFFE00000000
1FFFFF9103BC30
0BFFFFFFEFFFE2
03FFFFFFFFFFF9
007FFFFFFFFFFA
0006EFFFFFFFC2
000028DFFFC600
00000001210000
ENDCHAR
STARTCHAR d
ENCODING 100
SWIDTH 598 0
DWIDTH 17 0
BBX 16 22 0 0
BITMAP
0000000000059970
00000000002FFFF7
00000000004FFFF9
00000000004FFFF9
00000000004FFFF9
00000000004FFFF9
00000000004FFFF9
0000059B944FFFF9
0002CFFFFFCFFFF9
002EFFFFFFFFFFF9
00CFFFFFFFFFFFF9
07FFFFFFFFFFFFF9
0CFFFFD549FFFFF9
1FFFFE2000AFFFF9
2FFFFC00006FFFF9
1FFFFE10009FFFF9
0DFFFFA105FFFFF9
08FFFFFFFFFFFFF9
01EFFFFFFFFFFFF9
004FFFFFFFFFFFF9
0004EFFFFFDFFFF8
000018CEC819EEB2
ENDCHAR
STARTCHAR e
ENCODING 101
SWIDTH 573 0
DWIDTH 16 0
BBX 16 17 0 -1
BITMAP
0000000010000000
000017CFFFD82000
0005EFFFFFFFE500
006FFFFFFFFFFF30
03FFFFFFFFFFFFC0
0AFFFFFA68FFFFF2
1FFFFF70009FFFF4
3FFFFF5555CFFFF4
4FFFFFFFFFFFFFE1
4FFFFFFFFFFFFE50
1FFFFF5444443100
0CFFFFB300159500
05FFFFFFEEFFFF30
00AFFFFFFFFFFF80
001BFFFFFFFFFF70
00006CFFFFFFE800
0000002455420000
ENDCHAR
STARTCHAR f
ENCODING 102
SWIDTH 450 0
DWIDTH 13 0
BBX 13 22 0 0
BITMAP
00000048AA7000
00001BFFFFF400
0000CFFFFFF600
0006FFFFFFF600
000CFFFFFFE100
000EFFFF431000
000FFFFE000000
068FFFFF9BA400
5FFFFFFFFFFF10
8FFFFFFFFFFF30
8FFFFFFFFFFF20
3FFFFFFFFFFB00
012FFFFE232000
000FFFFE000000
000FFFFE000000
000FFFFE000000
000FFFFE000000
000FFFFE000000
000FFFFE000000
000FFFFE000000
000EFFFC000000
0006EFE5000000
ENDCHAR
STARTCHAR g
ENCODING 103
SWIDTH 585 0
DWIDTH 16 0
BBX 16 22 0 -7
BITMAP
000016AB8219CB70
0004EFFFFFAFFFF2
005FFFFFFFFFFFF4
02EFFFFFFFFFFFF4
0AFFFFFFFFFFFFF4
1FFFFF812AFFFFF4
3FFFFB0001EFFFF4
4FFFF80000BFFFF4
3FFFFC0001EFFFF4
0EFFFFB45CFFFFF4
09FFFFFFFFFFFFF4
01DFFFFFFFFFFFF4
003EFFFFFFFFFFF4
0002CFFFFEBFFFF4
00000478519FFFF3
0003710000DFFFF2
003EFD734BFFFFD0
00CFFFFFFFFFFF70
00EFFFFFFFFFFC00
005EFFFFFFFFB100
00029EFFFFD70000
0000003553000000
ENDCHAR
STARTCHAR h
ENCODING 104
SWIDTH 605 0
DWIDTH 17 0
BBX 15 22 1 0
BITMAP
2898200000000000
BFFFD00000000000
DFFFF00000000000
DFFFF00000000000
DFFFF00000000000
DFFFF00000000000
DFFFF00000000000
DFFFF039A8400000
DFFFF7FFFFFC2000
DFFFFFFFFFFFD100
DFFFFFFFFFFFFA00
DFFFFFFFFFFFFF30
DFFFFE736EFFFF80
DFFFF40005FFFFB0
DFFFF00002FFFFC0
DFFFF00001FFFFC0
DFFFF00001FFFFC0
DFFFF00001FFFFC0
DFFFF00001FFFFC0
DFFFF00001FFFFC0
CFFFE00001FFFFB0
5DFE7000007EFD40
ENDCHAR
STARTCHAR i
ENCODING 105
SWIDTH 255 0
DWIDTH 7 0
BBX 5 22 1 0
BITMAP
289820
BFFFD0
DFFFF0
DFFFF0
8FFFA0
024300
000000
39B930
BFFFD0
DFFFF0
DFFFF0
DFFFF0
DFFFF0
DFFFF0
DFFFF0
DFFFF0
DFFFF0
DFFFF0
DFFFF0
DFFFF0
CFFFE0
5DFE70
ENDCHAR
STARTCHAR j
ENCODING 106
SWIDTH 252 0
DWIDTH 7 0
BBX 10 29 -4 -7
BITMAP
0000027982
00000BFFFC
00000DFFFE
00000DFFFE
000007FFF8
0000002320
0000000000
000003BCB4
00000BFFFC
00000DFFFE
00000DFFFE
00000DFFFE
00000DFFFE
00000DFFFE
00000DFFFE
00000DFFFE
00000DFFFE
00000DFFFE
00000DFFFE
00000DFFFE
00000DFFFE
00000EFFFE
00005FFFFC
057AFFFFF8
7FFFFFFFF2
AFFFFFFF70
AFFFFFF700
6FFFFB3000
0354100000
ENDCHAR
STARTCHAR k
ENCODING 107
SWIDTH 536 0
DWIDTH 15 0
BBX 14 23 1 -1
BITMAP
29A93000000000
BFFFD000000000
DFFFF000000000
DFFFF000000000
DFFFF000000000
DFFFF000000000
DFFFF000000000
DFFFF000011000
DFFFF0007EE400
DFFFF00AFFFE20
DFFFF1AFFFFF80
DFFFFBFFFFFF40
DFFFFFFFFFE500
DFFFFFFFFE3000
DFFFFFFFF20000
DFFFFFFFFC1000
DFFFFFFFFFD300
DFFFFCFFFFFE50
DFFFF1BFFFFFF4
DFFFF00AFFFFF7
CFFFE000AFFFE1
5DFE700007EE40
00000000001100
ENDCHAR
STARTCHAR l
ENCODING 108
SWIDTH 327 0
DWIDTH 9 0
BBX 8 22 1 0
BITMAP
29A93000
BFFFD000
DFFFF000
DFFFF000
DFFFF000
DFFFF000
DFFFF000
DFFFF000
DFFFF000
DFFFF000
DFFFF000
DFFFF000
DFFFF000
DFFFF000
DFFFF000
DFFFF000
DFFFF100
CFFFFCA2
AFFFFFF9
7FFFFFFB
1EFFFFFA
029DEFE5
ENDCHAR
STARTCHAR m
ENCODING 109
SWIDTH 851 0
DWIDTH 24 0
BBX 22 15 1 0
BITMAP
2ABA305AB9300039BA5000
BFFFC7FFFFF608FFFFFA00
DFFFFFFFFFFFAFFFFFFF80
DFFFFFFFFFFFFFFFFFFFF1
DFFFFFFFFFFFFFFFFFFFF6
DFFFFB46FFFFFE54DFFFF8
DFFFF300AFFFF8005FFFFA
DFFFF1008FFFF6003FFFFA
DFFFF1008FFFF6003FFFFB
DFFFF1008FFFF6003FFFFB
DFFFF1008FFFF6003FFFFB
DFFFF1008FFFF6003FFFFB
DFFFF1008FFFF6003FFFFB
CFFFE0007FFFF5002FFFF9
5DFE70002CFEB00009EFD3
ENDCHAR
STARTCHAR n
ENCODING 110
SWIDTH 606 0
DWIDTH 17 0
BBX 15 15 1 0
BITMAP
3ABA4049B9500000
CFFFD8FFFFFC2000
DFFFFFFFFFFFE200
DFFFFFFFFFFFFB00
DFFFFFFFFFFFFF40
DFFFFE535EFFFF80
DFFFF40005FFFFB0
DFFFF10002FFFFC0
DFFFF00001FFFFD0
DFFFF00001FFFFD0
DFFFF00001FFFFD0
DFFFF00001FFFFD0
DFFFF00001FFFFD0
CFFFE00000FFFFC0
5DED6000007DED40
ENDCHAR
STARTCHAR o
ENCODING 111
SWIDTH 600 0
DWIDTH 17 0
BBX 17 17 0 -1
BITMAP
000000001000000000
000017CFFFC6000000
0004EFFFFFFFD30000
005FFFFFFFFFFE3000
02FFFFFFFFFFFFD100
0AFFFFFFDFFFFFF700
0EFFFFA102BFFFFC00
3FFFFD00001FFFFF00
4FFFFB00000EFFFF10
3FFFFD00001FFFFF00
1FFFFF7001AFFFFD00
0BFFFFFDBEFFFFF800
03FFFFFFFFFFFFE100
006FFFFFFFFFFF4000
0006EFFFFFFFE50000
000029EFFFE9200000
000000023200000000
ENDCHAR
STARTCHAR p
ENCODING 112
SWIDTH 582 0
DWIDTH 16 0
BBX 15 22 1 -7
BITMAP
3AB9317AA8200000
BFFFDCFFFFF70000
DFFFFFFFFFFF9000
DFFFFFFFFFFFF600
DFFFFFFFFFFFFE00
DFFFFD426EFFFF40
DFFFF40007FFFF80
DFFFF10004FFFF90
DFFFF50008FFFF70
DFFFFE637FFFFF40
DFFFFFFFFFFFFD00
DFFFFFFFFFFFF500
DFFFFFFFFFFF7000
DFFFECFFFFE60000
DFFFE05896100000
DFFFE00000000000
DFFFE00000000000
DFFFE00000000000
DFFFE00000000000
DFFFD00000000000
9FFF900000000000
0464000000000000
ENDCHAR
STARTCHAR q
ENCODING 113
SWIDTH 582 0
DWIDTH 16 0
BBX 16 22 0 -7
BITMAP
000017AA8218BA50
0004EFFFFEBFFFF1
005FFFFFFFFFFFF2
02EFFFFFFFFFFFF3
0AFFFFFFFFFFFFF3
1FFFFF923BFFFFF3
3FFFFB0001EFFFF3
4FFFF80000CFFFF3
3FFFFC0001EFFFF3
0EFFFFA44CFFFFF3
09FFFFFFFFFFFFF3
01EFFFFFFFFFFFF3
004EFFFFFFFFFFF3
0003DFFFFECFFFF3
00000589719FFFF3
00000000009FFFF3
00000000009FFFF3
00000000009FFFF3
00000000009FFFF3
00000000009FFFF2
00000000005FFFD0
0000000000036510
ENDCHAR
STARTCHAR r
ENCODING 114
SWIDTH 457 0
DWIDTH 13 0
BBX 12 15 1 0
BITMAP
3ABA406CDB50
BFFFEBFFFFF3
DFFFFFFFFFF5
DFFFFFFFFFF2
DFFFFFEEFFA0
DFFFFA102400
DFFFF1000000
DFFFF1000000
DFFFF1000000
DFFFF1000000
DFFFF1000000
DFFFF1000000
DFFFF1000000
CFFFE0000000
5DFE70000000
ENDCHAR
STARTCHAR s
ENCODING 115
SWIDTH 489 0
DWIDTH 14 0
BBX 13 16 0 -1
BITMAP
0005BEFFDB6100
00AFFFFFFFFE20
06FFFFFFFFFF40
0BFFFFDDFFFC00
0CFFFB00159200
0AFFFFB7410000
06FFFFFFFFA200
01DFFFFFFFFE20
002BFFFFFFFFA0
000039CFFFFFD0
04FD6101BFFFE0
0DFFFEBCFFFFD0
4FFFFFFFFFFF80
1CFFFFFFFFFD10
005BFFFFFD8100
00001332100000
ENDCHAR
STARTCHAR t
ENCODING 116
SWIDTH 449 0
DWIDTH 13 0
BBX 13 20 0 0
BITMAP
0004BCA3000000
000EFFFC000000
000FFFFD000000
000FFFFD000000
000FFFFD000000
19AFFFFEAAA400
7FFFFFFFFFFE00
8FFFFFFFFFFF20
8FFFFFFFFFFF10
4FFFFFFFFFFB00
012FFFFD232000
000FFFFD000000
000FFFFD000000
000FFFFD000000
000FFFFE000000
000EFFFFB96000
000BFFFFFFF400
0005FFFFFFF600
00009FFFFFF400
000005ADFFB000
ENDCHAR
STARTCHAR u
ENCODING 117
SWIDTH 606 0
DWIDTH 17 0
BBX 15 15 1 0
BITMAP
3ABA4000004BBA30
BFFFE00000EFFFB0
DFFFF00001FFFFD0
DFFFF10001FFFFD0
DFFFF10001FFFFD0
DFFFF10001FFFFD0
DFFFF10001FFFFD0
DFFFF10001FFFFD0
CFFFF30004FFFFD0
AFFFFC203CFFFFD0
5FFFFFFFFFFFFFD0
0DFFFFFFFFFFFFD0
04FFFFFFFFFFFFD0
005EFFFFFAEFFFC0
00028CEC607DED40
ENDCHAR
STARTCHAR v
ENCODING 118
SWIDTH 638 0
DWIDTH 18 0
BBX 18 16 0 -1
BITMAP
03BF900000000AEA20
3EFFF40000006FFFE2
8FFFFC000001EFFFF6
4FFFFF500007FFFFF2
0BFFFFC0001EFFFF90
02FFFFF5007FFFFE10
008FFFFD01EFFFF600
001EFFFF68FFFFC000
0006FFFFDEFFFF4000
0000CFFFFFFFFA0000
00003FFFFFFFE20000
000009FFFFFF700000
000001EFFFFD100000
0000007FFFF5000000
00000009FF80000000
000000001100000000
ENDCHAR
STARTCHAR w
ENCODING 119
SWIDTH 793 0
DWIDTH 22 0
BBX 22 15 0 0
BITMAP
04BD800002AB400004DC50
5FFFF3001EFFF3001EFFF7
8FFFF9007FFFFA006FFFFB
3FFFFE00CFFFFE10BFFFF7
0CFFFF53FFFFFF62FFFFF1
06FFFFA8FFFFFFB7FFFFA0
01EFFFFEFFFFFFFEFFFF30
009FFFFFFFFFFFFFFFFC00
003FFFFFFFFFFFFFFFF600
000BFFFFFFC9FFFFFFE100
0005FFFFFF73FFFFFF9000
0000EFFFFF20DFFFFF3000
00008FFFFB007FFFFC0000
00002FFFF5001EFFF50000
000006EF800005EF800000
ENDCHAR
STARTCHAR x
ENCODING 120
SWIDTH 567 0
DWIDTH 16 0
BBX 16 16 0 -1
BITMAP
02BD40000006EB10
1DFFF500006FFFC1
8FFFFF5006FFFFF6
4FFFFFF56FFFFFF3
08FFFFFFFFFFFF60
008FFFFFFFFFF600
0009FFFFFFFF7000
0000BFFFFFF90000
0005FFFFFFFE4000
005FFFFFFFFFE400
05FFFFFFFFFFFE40
3FFFFFF89FFFFFE2
8FFFFF8009FFFFF6
3EFFF800009FFFE1
04EF70000008FD30
0001000000001000
ENDCHAR
STARTCHAR y
ENCODING 121
SWIDTH 604 0
DWIDTH 17 0
BBX 17 22 0 -7
BITMAP
03CF90000000AEB300
4FFFF4000005FFFF40
8FFFFD00000BFFFF60
2FFFFF70003FFFFF20
08FFFFE200AFFFFA00
01DFFFFA02FFFFF300
005FFFFF49FFFFB000
000BFFFFDEFFFF5000
0002FFFFFFFFFD0000
00008FFFFFFFF60000
00001EFFFFFFE10000
000006FFFFFF800000
000000CFFFFF100000
000000AFFFF9000000
000002FFFFF3000000
000009FFFFB0000000
00001EFFFF40000000
00007FFFFC00000000
0000DFFFF600000000
0001FFFFE000000000
00008FFF7000000000
000003870000000000
ENDCHAR
STARTCHAR z
ENCODING 122
SWIDTH 586 0
DWIDTH 16 0
BBX 16 15 0 0
BITMAP
019BBBBBBBBBB920
08FFFFFFFFFFFFE1
0AFFFFFFFFFFFFF4
09FFFFFFFFFFFFF2
04EFFFFFFFFFFF80
0002222BFFFFF700
000001BFFFFF6000
00002CFFFFF50000
0002DFFFFE400000
003EFFFFE3000000
04EFFFFFEEEEEEB2
1EFFFFFFFFFFFFF9
4FFFFFFFFFFFFFFA
1EFFFFFFFFFFFFF9
05DFFFFFFFFFFFD3
ENDCHAR
STARTCHAR braceleft
ENCODING 123
SWIDTH 381 0
DWIDTH 11 0
BBX 11 29 0 -7
BITMAP
000000599600
00001BFFFF20
00009FFFFF40
0001FFFFFE10
0004FFFE6200
0005FFFA0000
0006FFFA0000
0006FFFA0000
0006FFFA0000
0006FFFA0000
0006FFFA0000
0008FFF80000
29BFFFF30000
7FFFFFB00000
8FFFFF400000
6FFFFFD10000
047EFFF50000
0007FFF80000
0005FFF90000
0005FFFA0000
0005FFFA0000
0005FFFA0000
0005FFFA0000
0005FFFA0000
0003FFFEA600
0000EFFFFF20
00006FFFFF30
000006EFFE10
000000145200
ENDCHAR
STARTCHAR bar
ENCODING 124
SWIDTH 217 0
DWIDTH 6 0
BBX 4 29 1 -7
BITMAP
2893
BFFC
DFFE
DFFE
DFFE
DFFE
DFFE
DFFE
DFFE
DFFE
DFFE
DFFE
DFFE
DFFE
DFFE
DFFE
DFFE
DFFE
DFFE
DFFE
DFFE
DFFE
DFFE
DFFE
DFFE
DFFE
DFFE
AFFB
1672
ENDCHAR
STARTCHAR braceright
ENCODING 125
SWIDTH 381 0
DWIDTH 11 0
BBX 11 29 0 -7
BITMAP
189820000000
7FFFF6000000
8FFFFF400000
5FFFFFB00000
047FFFE00000
000FFFF00000
000FFFF00000
000FFFF00000
000FFFF00000
000FFFF00000
000FFFF00000
000DFFF30000
0009FFFEA700
0002EFFFFF30
0000AFFFFF30
0004FFFFFF10
000AFFFB6300
000EFFF10000
000FFFF00000
000FFFF00000
000FFFF00000
000FFFF00000
000FFFF00000
000FFFF00000
18BFFFD00000
7FFFFF900000
8FFFFE100000
6FFFC2000000
035300000000
ENDCHAR
STARTCHAR asciitilde
ENCODING 126
SWIDTH 651 0
DWIDTH 18 0
BBX 15 7 1 4
BITMAP
0002687300038300
008FFFFF913EFF60
09FFFFFFFEFFFFF0
5FFFFFFFFFFFFFB0
8FFFFDFFFFFFFE20
1CFF704DFFFFC200
0066000158740000
ENDCHAR
STARTCHAR exclamdown
ENCODING 161
SWIDTH 268 0
DWIDTH 8 0
BBX 6 22 1 -7
BITMAP
014300
7FFFD1
CFFFF4
DFFFF6
BFFFF4
3CEE90
000000
000000
3BDC80
AFFFF3
BFFFF4
BFFFF4
BFFFF4
BFFFF4
BFFFF4
BFFFF4
BFFFF4
BFFFF4
BFFFF4
BFFFF4
8FFFE1
046520
ENDCHAR
STARTCHAR cent
ENCODING 162
SWIDTH 434 0
DWIDTH 12 0
BBX 12 22 0 -3
BITMAP
000003981000
00000BFF6000
00000CFF7000
00000CFF7000
00000CFF7000
00029FFFE910
004EFFFFFFE2
04FFFFFFFFF5
0CFFFFFFFFE1
2FFFF8018B30
4FFFE0000000
4FFFE0000000
2FFFF8118A20
0CFFFFFFFFD1
03FFFFFFFFF6
004EFFFFFFE2
00029FFFE920
00000CFF7000
00000CFF7000
00000CFF7000
000009FF4000
000000320000
ENDCHAR
STARTCHAR sterling
ENCODING 163
SWIDTH 675 0
DWIDTH 19 0
BBX 19 21 0 0
BITMAP
00000000478874000000
0000006DFFFFFFE70000
00001BFFFFFFFFFFC100
0000AFFFFFFFFFFFFA00
0004FFFFFFFFFFFFFD00
0009FFFFB3003AFFF800
000DFFFE1000006A6000
000FFFF9000000000000
001FFFF7000000000000
3CEFFFFEEEDA00000000
8FFFFFFFFFFF20000000
8FFFFFFFFFFF10000000
3CDDFFFFEDD900000000
0001FFFF800000000000
0000FFFF900000000000
0002FFFF800000000000
000AFFFFB88888888500
005FFFFFFFFFFFFFFF50
00BFFFFFFFFFFFFFFF70
009FFFFFFFFFFFFFFF60
002BFFFFFFFFFFFFFC10
ENDCHAR
STARTCHAR currency
ENCODING 164
SWIDTH 677 0
DWIDTH 19 0
BBX 19 22 0 0
BITMAP
01760000000000056000
0CFF60000000006FFC10
2FFFE510000015EFFF30
0CFFFFFEEDDEFFFFFC00
03EFFFFFFFFFFFFFE200
004FFFFFFFFFFFFF4000
008FFFFFFFFFFFFF8000
01FFFFE84348FFFFE100
06FFFF3000003FFFF500
09FFFA0000000BFFF800
0AFFF800000008FFF900
0AFFF800000008FFFA00
09FFFA0000000AFFF900
07FFFE2000001EFFF600
03FFFFC30004CFFFF200
00BFFFFFEDFFFFFFB000
003FFFFFFFFFFFFF3000
01DFFFFFFFFFFFFFC000
0AFFFFFFFFFFFFFFF900
2FFFF953223359FFFF20
2FFF80000000009FFE10
03BA10000000001BA200
ENDCHAR
STARTCHAR yen
ENCODING 165
SWIDTH 677 0
DWIDTH 19 0
BBX 19 21 0 0
BITMAP
00593000000000395000
1AFFE200000002EFFA00
7FFFFA0000000BFFFF70
6FFFFF5000005FFFFF50
0CFFFFD10001EFFFFC00
03FFFFF90009FFFFF300
007FFFFF303FFFFF7000
000CFFFFC1CFFFFC0000
0003FFFFFCFFFFF30000
00007FFFFFFFFF700000
00001DFFFFFFFD100000
000AFFFFFFFFFFFA0000
000FFFFFFFFFFFFE0000
0008EEEFFFFFEED80000
0000000FFFFE00000000
0001334FFFFE43300000
000CFFFFFFFFFFFC0000
000EFFFFFFFFFFFE0000
0006BCCFFFFFCCB60000
0000000DFFFD00000000
00000006DED500000000
ENDCHAR
STARTCHAR brokenbar
ENCODING 166
SWIDTH 215 0
DWIDTH 6 0
BBX 4 29 1 -7
BITMAP
2993
BFFC
DFFD
DFFE
DFFE
DFFE
DFFE
DFFE
DFFE
DFFE
DFFE
CFFD
7FF7
0000
0000
1672
AFFB
DFFD
DFFE
DFFE
DFFE
DFFE
DFFE
DFFE
DFFE
DFFE
DFFD
8FF9
0330
ENDCHAR
STARTCHAR section
ENCODING 167
SWIDTH 560 0
DWIDTH 16 0
BBX 15 29 0 -7
BITMAP
0000036775100000
0004DFFFFFFB3000
006FFFFFFFFFE400
02FFFFFFFFFFFC00
09FFFFFEFFFFF700
0DFFFF4018FFC000
0EFFFC0000251000
0DFFFF6000000000
09FFFFFDA6300000
02EFFFFFFFFC6000
00CFFFFFFFFFFA00
06FFFFFFFFFFFF60
0BFFFFC9DFFFFFB0
0EFFFE0005FFFFD0
0DFFFD0000CFFFE0
0BFFFFB413FFFFD0
06FFFFFFFFFFFF90
00CFFFFFFFFFFE20
0019FFFFFFFFFE20
000039EFFFFFFF90
000000037DFFFFD0
0079200001DFFFE0
0AFFE40000DFFFE0
3FFFFE7229FFFFB0
2FFFFFFFFFFFFF60
06FFFFFFFFFFFC00
007FFFFFFFFFC200
0003BFFFFFD60000
0000014542000000
ENDCHAR
STARTCHAR dieresis
ENCODING 168
SWIDTH 489 0
DWIDTH 14 0
BBX 13 6 1 16
BITMAP
28993000599710
AFFFE002FFFF70
DFFFF205FFFFA0
DFFFF104FFFFA0
8FFFC001EFFF50
03541000145300
ENDCHAR
STARTCHAR copyright
ENCODING 169
SWIDTH 711 0
DWIDTH 20 0
BBX 20 19 0 2
BITMAP
0000037BCDDCB7300000
0002BFFFFFFFFFFB1000
003EFFEB8778BEFFD100
01DFF7000331018FFB00
07FF5019EFFFA107FF40
0CFC01CFFFFFFB00DFA0
1FF709FFFCBFF8008FE0
3FF41FFF500260006FF1
4FF35FFB000000004FF2
4FF25FFA000000004FF3
3FF33FFD100000005FF2
1FF50DFFC54AF4007FF0
0DF904FFFFFFFB00BFC0
08FE104EFFFFF602FF70
02FFC10169A7202DFE10
006FFE84211259EFF600
0007FFFFFFFFFFFF6000
000039EFFFFFFE920000
00000002344420000000
ENDCHAR
STARTCHAR ordfeminine
ENCODING 170
SWIDTH 445 0
DWIDTH 12 0
BBX 12 11 0 9
BITMAP
0006CEB4BEC1
00AFFFFFFFF5
07FFFFFFFFF5
0EFFFAAFFFF5
3FFF7008FFF5
4FFF4005FFF5
2FFFB11CFFF5
0CFFFFFFFFF5
03FFFFFFFFF5
004EFFFDFFF4
000168615860
ENDCHAR
STARTCHAR guillemotleft
ENCODING 171
SWIDTH 668 0
DWIDTH 19 0
BBX 19 15 0 0
BITMAP
00000028300000076000
000004EFF40001CFF900
00004EFFFC001CFFFF30
0004EFFFF901CFFFFD10
004EFFFFA01CFFFFD200
04EFFFFA01CFFFFD2000
2EFFFFA00BFFFFD20000
8FFFFB002FFFFF200000
5FFFFF500DFFFFA00000
08FFFFF503EFFFFA0000
008FFFFF503EFFFFA000
0008FFFFF503EFFFFA00
00008FFFFC003EFFFF30
000008FFF70003EFFC00
0000007D7000003CB100
ENDCHAR
STARTCHAR logicalnot
ENCODING 172
SWIDTH 526 0
DWIDTH 15 0
BBX 15 10 0 3
BITMAP
0355555555554200
4FFFFFFFFFFFFF20
8FFFFFFFFFFFFF50
8FFFFFFFFFFFFF50
6FFFFFFFFFFFFF50
0578888888BFFF50
00000000007FFF50
00000000007FFF50
00000000004FFF30
0000000000057400
ENDCHAR
STARTCHAR registered
ENCODING 174
SWIDTH 711 0
DWIDTH 20 0
BBX 20 19 0 2
BITMAP
0000037BCDDCB7300000
0002BFFFFFFFFFFB1000
003EFFEB8778BEFFD100
01DFF7144442018FFB00
07FF50AFFFFFA107FF40
0CFC00BFFFFFFC00DFA0
1FF700BFF99EFF408FE0
3FF400BFF208FF605FF1
4FF300BFF66DFF404FF2
4FF200BFFFFFFD004FF3
3FF300BFFFFFF7005FF2
1FF500BFF99FFD007FF0
0DF900BFF20CFF40BFC0
08FE10AFF105FF53FF70
02FFC1153000543DFE10
006FFE8421135AFFF600
0007FFFFFFFFFFFF6000
000039EFFFFFFE920000
00000002344420000000
ENDCHAR
STARTCHAR degree
ENCODING 176
SWIDTH 407 0
DWIDTH 11 0
BBX 11 11 0 11
BITMAP
000157620000
004EFFFF9000
04FFFFFFFA00
0DFFFCEFFF40
3FFF501DFF90
4FFF0009FFA0
3FFF300CFF90
0EFFEADFFF50
05FFFFFFFB00
006EFFFFA100
000179840000
ENDCHAR
STARTCHAR plusminus
ENCODING 177
SWIDTH 505 0
DWIDTH 14 0
BBX 14 16 0 0
BITMAP
00000023000000
00000BFFD00000
00000FFFF20000
00112FFFF41100
1CFFFFFFFFFFD2
4FFFFFFFFFFFF6
4FFFFFFFFFFFF6
1DFFFFFFFFFFE2
00122FFFF42200
00000FFFF20000
000009FFB00000
00000000000000
05CDDDDDDDDC60
0DFFFFFFFFFFF0
0DFFFFFFFFFFF0
07EFFFFFFFFE90
ENDCHAR
STARTCHAR twosuperior
ENCODING 178
SWIDTH 455 0
DWIDTH 13 0
BBX 13 15 0 6
BITMAP
0005BFFD810000
008FFFFFFD2000
06FFFFFFFFD000
0DFFFFFFFFF600
3FFFF51BFFFA00
4FFFD006FFFB00
2FFFA00CFFFA00
048611BFFFF500
00006EFFFFC000
003DFFFFFC1000
04FFFFFFB32000
1EFFFFFFFFFE10
3FFFFFFFFFFF40
2FFFFFFFFFFF40
06DEEEEEEEEC10
ENDCHAR
STARTCHAR threesuperior
ENCODING 179
SWIDTH 457 0
DWIDTH 13 0
BBX 13 16 0 5
BITMAP
0003AEFEA30000
006FFFFFFF6000
03FFFFFFFFF300
09FFFECFFFF900
07FFF207FFFB00
007B7008FFFA00
00001BEFFFE300
00003FFFFFD100
00001DFFFFFA00
1CFE5014FFFF00
4FFFE102FFFF10
1FFFFC8DFFFD00
0AFFFFFFFFF700
01CFFFFFFFA000
0018EFFFD60000
00000221000000
ENDCHAR
STARTCHAR acute
ENCODING 180
SWIDTH 605 0
DWIDTH 17 0
BBX 9 6 4 16
BITMAP
0000049500
016AEFFF10
6FFFFFFF50
BFFFFFFF50
7FFFFEA500
1EE9400000
ENDCHAR
STARTCHAR mu
ENCODING 181
SWIDTH 601 0
DWIDTH 17 0
BBX 15 22 1 -7
BITMAP
3ABA4000006BB920
BFFFD00001FFFF90
DFFFF00002FFFFA0
DFFFF00002FFFFB0
DFFFF00002FFFFB0
DFFFF00002FFFFB0
DFFFF00002FFFFB0
DFFFF00003FFFFB0
DFFFF30006FFFFB0
DFFFFC315EFFFFB0
DFFFFFFFFFFFFFB0
DFFFFFFFFFFFFFB0
DFFFFFFFFFFFFFB0
DFFFFFFFF9FFFF90
DFFFF6BB606BCA20
DFFFF00000000000
DFFFF00000000000
DFFFF00000000000
DFFFF00000000000
DFFFE00000000000
7FFF800000000000
0121000000000000
ENDCHAR
STARTCHAR paragraph
ENCODING 182
SWIDTH 614 0
DWIDTH 17 0
BBX 16 25 0 -7
BITMAP
0000223333333210
019EFFFFFFFFFFF4
09FFFFFFFFFFFFF8
0EFFFFFFFDABFFF8
2FFFFFFFFA04FFF8
2FFFFFFFFA04FFF8
2FFFFFFFFA04FFF8
0FFFFFFFFA04FFF8
0AFFFFFFFA04FFF8
02DFFFFFFA04FFF8
00058AFFFA04FFF8
000003FFFA04FFF8
000003FFFA04FFF8
000003FFFA04FFF8
000003FFFA04FFF8
000003FFFA04FFF8
000003FFFA04FFF8
000003FFFA04FFF8
000003FFFA04FFF8
000003FFFA04FFF8
000003FFFA04FFF8
000003FFFA04FFF8
000002FFF904FFF8
000000EFF701FFF5
0000003760003760
ENDCHAR
STARTCHAR periodcentered
ENCODING 183
SWIDTH 237 0
DWIDTH 7 0
BBX 6 6 0 6
BITMAP
003310
0DFFF7
4FFFFD
4FFFFE
2FFFFC
08EFD4
ENDCHAR
STARTCHAR cedilla
ENCODING 184
SWIDTH 559 0
DWIDTH 16 0
BBX 6 7 5 -6
BITMAP
4BC810
EFFFC0
9DBFF5
254FF6
DFFFF2
BFFF60
045200
ENDCHAR
STARTCHAR onesuperior
ENCODING 185
SWIDTH 321 0
DWIDTH 9 0
BBX 8 15 0 6
BITMAP
00004CB4
0006FFFC
008FFFFD
09FFFFFD
6FFFFFFD
7FFFFFFD
1BFEFFFD
0024FFFD
0004FFFD
0004FFFD
0004FFFD
0004FFFD
0004FFFD
0003FFFD
0000BEE6
ENDCHAR
STARTCHAR ordmasculine
ENCODING 186
SWIDTH 439 0
DWIDTH 12 0
BBX 12 11 0 9
BITMAP
00029CCA5000
006FFFFFFA00
05FFFFFFFF90
0DFFFCBFFFF3
3FFF9004FFF7
4FFF4000EFF9
3FFF8003FFF8
0EFFFA8EFFF4
06FFFFFFFFB0
008FFFFFFC10
0004AEEC6000
ENDCHAR
STARTCHAR guillemotright
ENCODING 187
SWIDTH 669 0
DWIDTH 19 0
BBX 19 15 0 0
BITMAP
01750000005710000000
1CFF800007FFD1000000
7FFFF8002FFFFD100000
4FFFFF800DFFFFD10000
05FFFFF802DFFFFD1000
005FFFFF801DFFFFD100
0005FFFFF701DFFFFC00
00006FFFFD001EFFFF40
0002DFFFFA009FFFFE10
002DFFFFC109FFFFF400
02DFFFFC109FFFFF4000
2DFFFFC109FFFFF40000
7FFFFC101FFFFF400000
3EFFC1000BFFF4000000
04CA100001AC40000000
ENDCHAR
STARTCHAR onequarter
ENCODING 188
SWIDTH 786 0
DWIDTH 22 0
BBX 20 23 1 -1
BITMAP
00017500000008C30000
002DFF3000002FF90000
03EFFF400000AFF20000
3EFFFF400003FF900000
8FFFFF40000BFE100000
2DEFFF40004FF8000000
000EFF4000BFE1000000
000EFF4004FF70000000
000EFF400CFD10000000
000EFF405FF600000000
000EFF40DFD07B606B91
000CFF26FF51FFF2DFF5
0000311EFC04FFF0DFF5
0000007FF408FFC0DFF5
000001EFB00CFF80DFF5
000008FF301FFF85EFF5
00001EFB004FFFFFFFF5
00009FF3005FFFFFFFF5
0002FFA00019BBBBFFF5
000AFF2000000000DFF5
003FF90000000000DFF5
009FE100000000008DC1
003B6000000000000000
ENDCHAR
STARTCHAR onehalf
ENCODING 189
SWIDTH 804 0
DWIDTH 23 0
BBX 20 23 1 -1
BITMAP
00017500000008C30000
002DFF3000002FF90000
03EFFF400000AFF20000
3EFFFF400003FF900000
8FFFFF40000BFE100000
2DEFFF40004FF8000000
000EFF4000BFE1000000
000EFF4004FF70000000
000EFF400CFD10000000
000EFF405FF600000000
000EFF40DFD029CC9200
000CFF26FF53EFFFFE30
0000311EFC0DFFFFFFD0
0000007FF43FFF88FFF4
000001EFB05FFE00EFF5
000008FF303EFA06FFF4
00001EFB0001118FFFD0
00009FF300006EFFFE30
0002FFA00008FFFFE631
000AFF20003FFFFFFFFA
003FF900005FFFFFFFFC
009FE100001AEFFFFFE8
003B6000000000000000
ENDCHAR
STARTCHAR threequarters
ENCODING 190
SWIDTH 842 0
DWIDTH 24 0
BBX 21 23 1 -1
BITMAP
000477400000001D910000
01CFFFFB1000008FF20000
0BFFFFFFA00002FFA00000
1FFF9BFFF10009FF300000
08FA02FFF1002FF9000000
00119CFFB000AFF2000000
0005FFFF8003FF90000000
16629BFFF30BFE10000000
8FF800DFF64FF800000000
7FFF89FFF4CFE100000000
1EFFFFFFC5FF71BA31AB60
03DFFFFC2DFD07FFB5FFD0
000577406FF60BFF95FFD0
00000000DFD00EFF55FFD0
00000007FF503FFF15FFD0
0000001EFC007FFE59FFD0
0000007FF400AFFFFFFFD0
000001EFB000BFFFFFFFD0
000008FF30004ABBBCFFD0
00002FFA0000000005FFD0
00009FF20000000005FFD0
0001FF900000000001CD80
00007B2000000000000000
ENDCHAR
STARTCHAR questiondown
ENCODING 191
SWIDTH 511 0
DWIDTH 14 0
BBX 14 22 0 -7
BITMAP
000007CCA20000
00003FFFFB0000
00005FFFFD0000
00004FFFFD0000
00001EFFF80000
00000156400000
00000000000000
00000267500000
00000EFFF50000
00018FFFF70000
003EFFFFF50000
03FFFFFFD10000
0CFFFFE8100000
2FFFFA10000000
4FFFF20003EE91
4FFFF3000AFFFB
1FFFFD648FFFFC
0AFFFFFFFFFFF6
02EFFFFFFFFFC0
004EFFFFFFFD10
00029EFFFD7100
00000023200000
ENDCHAR
STARTCHAR Agrave
ENCODING 192
SWIDTH 765 0
DWIDTH 21 0
BBX 21 28 0 -1
BITMAP
0000004DA5100000000000
000000DFFFFB6100000000
000001FFFFFFFE00000000
000000EFFFFFFE00000000
00000015AEFFFB00000000
000000000049C300000000
0000000003760000000000
000000004FFFA000000000
00000000CFFFF400000000
00000005FFFFFB00000000
0000000CFFFFFF30000000
0000004FFFFFFFA0000000
000000CFFFFFFFF3000000
000004FFFFFFFFFA000000
00000BFFFFEFFFFF200000
00003FFFFF5DFFFF900000
0000BFFFFC06FFFFF20000
0003FFFFF500DFFFF90000
000AFFFFF888CFFFFF2000
002FFFFFFFFFFFFFFF8000
00AFFFFFFFFFFFFFFFE100
02FFFFFFFFFFFFFFFFF800
09FFFFE9999999BFFFFE10
1FFFFF600000001EFFFF70
7FFFFE0000000008FFFFD0
6FFFF70000000001EFFFC0
07EFC100000000007FFB20
0013100000000000032000
ENDCHAR
STARTCHAR Aacute
ENCODING 193
SWIDTH 765 0
DWIDTH 21 0
BBX 21 29 0 -1
BITMAP
0000000000000220000000
000000000038DFE2000000
000000019DFFFFF7000000
00000007FFFFFFF9000000
00000006FFFFFFC3000000
00000001EFFB7200000000
0000000035100000000000
0000000003760000000000
000000004FFFA000000000
00000000CFFFF400000000
00000005FFFFFB00000000
0000000CFFFFFF30000000
0000004FFFFFFFA0000000
000000CFFFFFFFF3000000
000004FFFFFFFFFA000000
00000BFFFFEFFFFF200000
00003FFFFF5DFFFF900000
0000BFFFFC06FFFFF20000
0003FFFFF500DFFFF90000
000AFFFFF888CFFFFF2000
002FFFFFFFFFFFFFFF8000
00AFFFFFFFFFFFFFFFE100
02FFFFFFFFFFFFFFFFF800
09FFFFE9999999BFFFFE10
1FFFFF600000001EFFFF70
7FFFFE0000000008FFFFD0
6FFFF70000000001EFFFC0
07EFC100000000007FFB20
0013100000000000032000
ENDCHAR
STARTCHAR Acircumflex
ENCODING 194
SWIDTH 765 0
DWIDTH 21 0
BBX 21 29 0 -1
BITMAP
0000000000310000000000
000000049EFFC720000000
000006EFFFFFFFFB100000
00000DFFFFFFFFFF400000
000008FFFFDEFFFE100000
000001CEA4017DF6000000
0000000000000000000000
0000000003760000000000
000000004FFFA000000000
00000000CFFFF400000000
00000005FFFFFB00000000
0000000CFFFFFF30000000
0000004FFFFFFFA0000000
000000CFFFFFFFF3000000
000004FFFFFFFFFA000000
00000BFFFFEFFFFF200000
00003FFFFF5DFFFF900000
0000BFFFFC06FFFFF20000
0003FFFFF500DFFFF90000
000AFFFFF888CFFFFF2000
002FFFFFFFFFFFFFFF8000
00AFFFFFFFFFFFFFFFE100
02FFFFFFFFFFFFFFFFF800
09FFFFE9999999BFFFFE10
1FFFFF600000001EFFFF70
7FFFFE0000000008FFFFD0
6FFFF70000000001EFFFC0
07EFC100000000007FFB20
0013100000000000032000
ENDCHAR
STARTCHAR Atilde
ENCODING 195
SWIDTH 765 0
DWIDTH 21 0
BBX 21 29 0 -1
BITMAP
0000000033000130000000
0000004DFFE40BFA000000
000003FFFFFFEFFF300000
00000BFFFFFFFFFD000000
00000AFFA9FFFFE4000000
0000019A004AC920000000
0000000000000000000000
0000000003760000000000
000000004FFFA000000000
00000000CFFFF400000000
00000005FFFFFB00000000
0000000CFFFFFF30000000
0000004FFFFFFFA0000000
000000CFFFFFFFF3000000
000004FFFFFFFFFA000000
00000BFFFFEFFFFF200000
00003FFFFF5DFFFF900000
0000BFFFFC06FFFFF20000
0003FFFFF500DFFFF90000
000AFFFFF888CFFFFF2000
002FFFFFFFFFFFFFFF8000
00AFFFFFFFFFFFFFFFE100
02FFFFFFFFFFFFFFFFF800
09FFFFE9999999BFFFFE10
1FFFFF600000001EFFFF70
7FFFFE0000000008FFFFD0
6FFFF70000000001EFFFC0
07EFC100000000007FFB20
0013100000000000032000
ENDCHAR
STARTCHAR Adieresis
ENCODING 196
SWIDTH 765 0
DWIDTH 21 0
BBX 21 29 0 -1
BITMAP
0000013310000243000000
00002EFFE2008FFFA00000
00007FFFF700EFFFF10000
00007FFFF800EFFFF10000
00005FFFF600CFFFE00000
000008BB80003ABA400000
0000000000000000000000
0000000003760000000000
000000004FFFA000000000
00000000CFFFF400000000
00000005FFFFFB00000000
0000000CFFFFFF30000000
0000004FFFFFFFA0000000
000000CFFFFFFFF3000000
000004FFFFFFFFFA000000
00000BFFFFEFFFFF200000
00003FFFFF5DFFFF900000
0000BFFFFC06FFFFF20000
0003FFFFF500DFFFF90000
000AFFFFF888CFFFFF2000
002FFFFFFFFFFFFFFF8000
00AFFFFFFFFFFFFFFFE100
02FFFFFFFFFFFFFFFFF800
09FFFFE9999999BFFFFE10
1FFFFF600000001EFFFF70
7FFFFE0000000008FFFFD0
6FFFF70000000001EFFFC0
07EFC100000000007FFB20
0013100000000000032000
ENDCHAR
STARTCHAR Aring
ENCODING 197
SWIDTH 765 0
DWIDTH 21 0
BBX 21 27 0 -1
BITMAP
0000000017B93000000000
00000002DFFFF600000000
00000009FA36FE10000000
0000000DF100AF40000000
0000000DF200BF40000000
00000008FD7AFD00000000
00000001BFFFF300000000
00000000CFFFF300000000
00000004FFFFFB00000000
0000000CFFFFFF30000000
0000004FFFFFFFA0000000
000000BFFFFFFFF3000000
000003FFFFFFFFFA000000
00000BFFFFEFFFFF200000
00003FFFFF5DFFFF900000
0000AFFFFC06FFFFF20000
0003FFFFF500DFFFF90000
000AFFFFF888CFFFFF2000
002FFFFFFFFFFFFFFF8000
009FFFFFFFFFFFFFFFE100
02FFFFFFFFFFFFFFFFF800
09FFFFE9999999BFFFFE10
2FFFFF600000001EFFFF70
7FFFFE0000000008FFFFD0
6FFFF70000000001EFFFC0
07EFC100000000007FFB20
0013100000000000032000
ENDCHAR
STARTCHAR AE
ENCODING 198
SWIDTH 1148 0
DWIDTH 32 0
BBX 32 22 0 -1
BITMAP
00000000000000027888888888888840
000000000000004FFFFFFFFFFFFFFFF3
00000000000003EFFFFFFFFFFFFFFFF6
0000000000002EFFFFFFFFFFFFFFFFF6
000000000001DFFFFFFFFFFFFFFFFFF3
00000000001CFFFFFFFFA66666666630
0000000000BFFFFFFFFF700000000000
000000000AFFFFFFFFFF700000000000
000000009FFFFFEBFFFFDCCCCBB60000
00000007FFFFFE38FFFFFFFFFFFF3000
0000006FFFFFF408FFFFFFFFFFFF5000
000005FFFFFF6008FFFFFFFFFFFF4000
00004FFFFFFB555AFFFFFFFFFFFD1000
0003EFFFFFFFFFFFFFFF833333300000
002EFFFFFFFFFFFFFFFF700000000000
01DFFFFFFFFFFFFFFFFF700000000000
1CFFFFFECCCCCCCEFFFFFFFFFFFFFEB1
9FFFFFD100000008FFFFFFFFFFFFFFF5
EFFFFD2000000008FFFFFFFFFFFFFFF6
8FFFE30000000004FFFFFFFFFFFFFFF5
1BFE3000000000007DFFFFFFFFFFFEB1
00310000000000000000000000000000
ENDCHAR
STARTCHAR Ccedilla
ENCODING 199
SWIDTH 679 0
DWIDTH 19 0
BBX 19 27 0 -6
BITMAP
0000000159BBA7300000
0000019EFFFFFFFC5000
00005EFFFFFFFFFFF900
0007FFFFFFFFFFFFFF40
005FFFFFFFFFFFFFFF20
01EFFFFFD8446BFFF800
07FFFFF91000004A8000
0CFFFFA0000000000000
1FFFFF20000000000000
3FFFFC00000000000000
4FFFFA00000000000000
3FFFFB00000000000000
2FFFFE00000000000000
0EFFFF50000000000000
09FFFFE3000000032000
03FFFFFE710003BFE200
009FFFFFFECBDFFFFC00
000CFFFFFFFFFFFFFF30
0001BFFFFFFFFFFFFE10
000007EFFFFFFFFFC300
00000017CFFFFEB50000
000000003FFFF4000000
000000001EEEFC000000
000000000429FD000000
000000002FFFFA000000
000000002EFFD2000000
00000000015400000000
ENDCHAR
STARTCHAR Egrave
ENCODING 200
SWIDTH 638 0
DWIDTH 18 0
BBX 17 27 1 0
BITMAP
00001BB72000000000
00007FFFFD83000000
0000AFFFFFFF500000
00008FFFFFFF600000
0000038DFFFF200000
0000000027B7000000
068888888888887200
9FFFFFFFFFFFFFFE00
CFFFFFFFFFFFFFFF20
DFFFFFFFFFFFFFFF20
DFFFFFFFFFFFFFFD00
DFFFF7777777776100
DFFFF1000000000000
DFFFF1000000000000
DFFFFBBBBBBA400000
DFFFFFFFFFFFE00000
DFFFFFFFFFFFF10000
DFFFFFFFFFFFF00000
DFFFFFFFFFFFA00000
DFFFF4333332000000
DFFFF1000000000000
DFFFF1000000000000
DFFFFEEEEEEEEEE700
DFFFFFFFFFFFFFFF10
DFFFFFFFFFFFFFFF20
CFFFFFFFFFFFFFFF10
4DFFFFFFFFFFFFE800
ENDCHAR
STARTCHAR Eacute
ENCODING 201
SWIDTH 638 0
DWIDTH 18 0
BBX 17 28 1 0
BITMAP
000000000013000000
000000027CFF400000
000007DFFFFFA00000
00005FFFFFFFC00000
00003FFFFFFD500000
00000DFFC730000000
000002620000000000
068888888888887200
9FFFFFFFFFFFFFFE00
CFFFFFFFFFFFFFFF20
DFFFFFFFFFFFFFFF20
DFFFFFFFFFFFFFFD00
DFFFF7777777776100
DFFFF1000000000000
DFFFF1000000000000
DFFFFBBBBBBA400000
DFFFFFFFFFFFE00000
DFFFFFFFFFFFF10000
DFFFFFFFFFFFF00000
DFFFFFFFFFFFA00000
DFFFF4333332000000
DFFFF1000000000000
DFFFF1000000000000
DFFFFEEEEEEEEEE700
DFFFFFFFFFFFFFFF10
DFFFFFFFFFFFFFFF20
CFFFFFFFFFFFFFFF10
4DFFFFFFFFFFFFE800
ENDCHAR
STARTCHAR Ecircumflex
ENCODING 202
SWIDTH 638 0
DWIDTH 18 0
BBX 17 28 1 0
BITMAP
000000022000000000
000027CFFD83000000
003CFFFFFFFFD30000
008FFFFFFFFFF90000
004FFFFEDFFFF50000
0008FC6005BFA00000
000000000000000000
068888888888887200
9FFFFFFFFFFFFFFE00
CFFFFFFFFFFFFFFF20
DFFFFFFFFFFFFFFF20
DFFFFFFFFFFFFFFD00
DFFFF7777777776100
DFFFF1000000000000
DFFFF1000000000000
DFFFFBBBBBBA400000
DFFFFFFFFFFFE00000
DFFFFFFFFFFFF10000
DFFFFFFFFFFFF00000
DFFFFFFFFFFFA00000
DFFFF4333332000000
DFFFF1000000000000
DFFFF1000000000000
DFFFFEEEEEEEEEE700
DFFFFFFFFFFFFFFF10
DFFFFFFFFFFFFFFF20
CFFFFFFFFFFFFFFF10
4DFFFFFFFFFFFFE800
ENDCHAR
STARTCHAR Edieresis
ENCODING 203
SWIDTH 638 0
DWIDTH 18 0
BBX 17 28 1 0
BITMAP
000242000013310000
00AFFF8003EFFE2000
00FFFFE007FFFF7000
01FFFFE007FFFF8000
00EFFFC005FFFF6000
004ABA30008BB80000
000000000000000000
068888888888887200
9FFFFFFFFFFFFFFE00
CFFFFFFFFFFFFFFF20
DFFFFFFFFFFFFFFF20
DFFFFFFFFFFFFFFD00
DFFFF7777777776100
DFFFF1000000000000
DFFFF1000000000000
DFFFFBBBBBBA400000
DFFFFFFFFFFFE00000
DFFFFFFFFFFFF10000
DFFFFFFFFFFFF00000
DFFFFFFFFFFFA00000
DFFFF4333332000000
DFFFF1000000000000
DFFFF1000000000000
DFFFFEEEEEEEEEE700
DFFFFFFFFFFFFFFF10
DFFFFFFFFFFFFFFF20
CFFFFFFFFFFFFFFF10
4DFFFFFFFFFFFFE800
ENDCHAR
STARTCHAR Igrave
ENCODING 204
SWIDTH 267 0
DWIDTH 7 0
BBX 9 27 -2 0
BITMAP
07D9400000
1FFFFEA500
4FFFFFFFB0
3FFFFFFFC0
016BFFFF80
000015AB10
0000687200
0008FFFE10
000BFFFF30
000BFFFF30
000BFFFF30
000BFFFF30
000BFFFF30
000BFFFF30
000BFFFF30
000BFFFF30
000BFFFF30
000BFFFF30
000BFFFF30
000BFFFF30
000BFFFF30
000BFFFF30
000BFFFF30
000BFFFF30
000BFFFF30
000AFFFF20
0003CFE900
ENDCHAR
STARTCHAR Iacute
ENCODING 205
SWIDTH 269 0
DWIDTH 8 0
BBX 9 28 0 0
BITMAP
0000001300
00027CFF40
07DFFFFFA0
4FFFFFFFC0
3FFFFFFD50
0CFFC83000
0262000000
0058720000
07FFFE1000
0BFFFF3000
0BFFFF4000
0BFFFF4000
0BFFFF4000
0BFFFF4000
0BFFFF4000
0BFFFF4000
0BFFFF4000
0BFFFF4000
0BFFFF4000
0BFFFF4000
0BFFFF4000
0BFFFF4000
0BFFFF4000
0BFFFF4000
0BFFFF4000
0BFFFF4000
09FFFF3000
03CFE90000
ENDCHAR
STARTCHAR Icircumflex
ENCODING 206
SWIDTH 270 0
DWIDTH 8 0
BBX 12 28 -2 0
BITMAP
000003200000
0049EFFC7200
5EFFFFFFFFB1
CFFFFFFFFFF5
8FFFFDEFFFF2
1BEA4017DF70
000000000000
000058720000
0007FFFE1000
000BFFFF3000
000BFFFF4000
000BFFFF4000
000BFFFF4000
000BFFFF4000
000BFFFF4000
000BFFFF4000
000BFFFF4000
000BFFFF4000
000BFFFF4000
000BFFFF4000
000BFFFF4000
000BFFFF4000
000BFFFF4000
000BFFFF4000
000BFFFF4000
000BFFFF4000
0009FFFF3000
0003CFE90000
ENDCHAR
STARTCHAR Idieresis
ENCODING 207
SWIDTH 268 0
DWIDTH 8 0
BBX 14 28 -3 0
BITMAP
01331000024300
2EFFF3007FFFB0
6FFFF800DFFFF1
6FFFF900DFFFF2
4FFFF600BFFFE1
07BB810029BA40
00000000000000
00000587300000
00006FFFF10000
0000AFFFF40000
0000AFFFF40000
0000AFFFF40000
0000AFFFF40000
0000AFFFF40000
0000AFFFF40000
0000AFFFF40000
0000AFFFF40000
0000AFFFF40000
0000AFFFF40000
0000AFFFF40000
0000AFFFF40000
0000AFFFF40000
0000AFFFF40000
0000AFFFF40000
0000AFFFF40000
0000AFFFF40000
00009FFFF30000
00002CFEA00000
ENDCHAR
STARTCHAR Eth
ENCODING 208
SWIDTH 775 0
DWIDTH 22 0
BBX 21 21 0 0
BITMAP
0001688888875200000000
000AFFFFFFFFFFC5000000
000DFFFFFFFFFFFFB10000
000DFFFFFFFFFFFFFD2000
000DFFFFFFFFFFFFFFC100
000DFFFF7778BFFFFFF900
000DFFFF100004EFFFFF20
000DFFFF1000002EFFFF70
013EFFFF41000007FFFFC0
1EFFFFFFFF300002FFFFD0
4FFFFFFFFF600000FFFFF0
3FFFFFFFFF600000FFFFE0
058EFFFF97000004FFFFC0
000DFFFF1000000BFFFF80
000DFFFF1000009FFFFF40
000DFFFF10015CFFFFFB00
000DFFFFFFFFFFFFFFE300
000DFFFFFFFFFFFFFF5000
000DFFFFFFFFFFFFE50000
000CFFFFFFFFFFFB300000
0005DEFFFFFEC840000000
ENDCHAR
STARTCHAR Ntilde
ENCODING 209
SWIDTH 720 0
DWIDTH 20 0
BBX 19 28 1 0
BITMAP
00000023100031000000
00001AFFF806FD200000
0000CFFFFFEFFF900000
0005FFFFFFFFFF500000
0004FFD7EFFFF9000000
00005B3019CB50000000
00000000000000000000
16761000000001676100
AFFFE20000000AFFFC00
DFFFFB0000000DFFFF00
DFFFFF8000000DFFFF10
DFFFFFF400000DFFFF10
DFFFFFFE10000DFFFF10
DFFFFFFFB0000DFFFF10
DFFFFFFFF7000DFFFF10
DFFFFFFFFF300DFFFF10
DFFFFCFFFFD10DFFFF10
DFFFF3EFFFFB0DFFFF10
DFFFF15FFFFF7DFFFF10
DFFFF108FFFFFFFFFF10
DFFFF100BFFFFFFFFF10
DFFFF1002EFFFFFFFF10
DFFFF10004FFFFFFFF10
DFFFF100008FFFFFFF10
DFFFF100000BFFFFFF10
DFFFF1000001EFFFFF10
CFFFE00000004FFFFE00
5DFE7000000006EFE700
ENDCHAR
STARTCHAR Ograve
ENCODING 210
SWIDTH 775 0
DWIDTH 22 0
BBX 21 28 0 -1
BITMAP
0000002CB6200000000000
0000009FFFFC7200000000
000000CFFFFFFF30000000
000000AFFFFFFF40000000
000000048DFFFE10000000
000000000038C600000000
000000027ABB9510000000
000003BFFFFFFFF8100000
00006FFFFFFFFFFFD30000
0007FFFFFFFFFFFFFE3000
005FFFFFFFFFFFFFFFE200
00DFFFFFC6348EFFFFFA00
06FFFFF8000001CFFFFF30
0BFFFFA00000001DFFFF80
1FFFFF2000000006FFFFC0
3FFFFC0000000001FFFFD0
4FFFFA0000000000FFFFF0
4FFFFB0000000000FFFFE0
2FFFFE0000000003FFFFD0
0EFFFF5000000008FFFF90
0AFFFFD20000004FFFFF50
04FFFFFD400006FFFFFD00
00AFFFFFFDAAEFFFFFF600
001DFFFFFFFFFFFFFFA000
0002DFFFFFFFFFFFFB1000
00001BFFFFFFFFFF900000
0000005BFFFFFEA3000000
0000000013543000000000
ENDCHAR
STARTCHAR Oacute
ENCODING 211
SWIDTH 775 0
DWIDTH 22 0
BBX 21 29 0 -1
BITMAP
0000000000000210000000
000000000048DFE1000000
000000029EFFFFF5000000
00000009FFFFFFF8000000
00000007FFFFFFB2000000
00000002FFFB6100000000
0000000045100000000000
000000027ABB9510000000
000003BFFFFFFFF8100000
00006FFFFFFFFFFFD30000
0007FFFFFFFFFFFFFE3000
005FFFFFFFFFFFFFFFE200
00DFFFFFC6348EFFFFFA00
06FFFFF8000001CFFFFF30
0BFFFFA00000001DFFFF80
1FFFFF2000000006FFFFC0
3FFFFC0000000001FFFFD0
4FFFFA0000000000FFFFF0
4FFFFB0000000000FFFFE0
2FFFFE0000000003FFFFD0
0EFFFF5000000008FFFF90
0AFFFFD20000004FFFFF50
04FFFFFD400006FFFFFD00
00AFFFFFFDAAEFFFFFF600
001DFFFFFFFFFFFFFFA000
0002DFFFFFFFFFFFFB1000
00001BFFFFFFFFFF900000
0000005BFFFFFEA3000000
0000000013543000000000
ENDCHAR
STARTCHAR Ocircumflex
ENCODING 212
SWIDTH 775 0
DWIDTH 22 0
BBX 21 29 0 -1
BITMAP
0000000000320000000000
000000038DFFC830000000
000004DFFFFFFFFC200000
00000AFFFFFFFFFF700000
000006FFFFDEFFFF300000
000000AEB5006CF8000000
0000000000000010000000
000000027ABB9510000000
000003BFFFFFFFF8100000
00006FFFFFFFFFFFD30000
0007FFFFFFFFFFFFFE3000
005FFFFFFFFFFFFFFFE200
00DFFFFFC6348EFFFFFA00
06FFFFF8000001CFFFFF30
0BFFFFA00000001DFFFF80
1FFFFF2000000006FFFFC0
3FFFFC0000000001FFFFD0
4FFFFA0000000000FFFFF0
4FFFFB0000000000FFFFE0
2FFFFE0000000003FFFFD0
0EFFFF5000000008FFFF90
0AFFFFD20000004FFFFF50
04FFFFFD400006FFFFFD00
00AFFFFFFDAAEFFFFFF600
001DFFFFFFFFFFFFFFA000
0002DFFFFFFFFFFFFB1000
00001BFFFFFFFFFF900000
0000005BFFFFFEA3000000
0000000013543000000000
ENDCHAR
STARTCHAR Otilde
ENCODING 213
SWIDTH 775 0
DWIDTH 22 0
BBX 21 29 0 -1
BITMAP
0000000013200012000000
00000006EFFC21EF600000
0000007FFFFFFEFFE00000
000000EFFFFFFFFFA00000
000000DFF8BFFFFD100000
0000002A7006BC81000000
0000000000000000000000
000000027ABB9510000000
000003BFFFFFFFF8100000
00006FFFFFFFFFFFD30000
0007FFFFFFFFFFFFFE3000
005FFFFFFFFFFFFFFFE200
00DFFFFFC6348EFFFFFA00
06FFFFF8000001CFFFFF30
0BFFFFA00000001DFFFF80
1FFFFF2000000006FFFFC0
3FFFFC0000000001FFFFD0
4FFFFA0000000000FFFFF0
4FFFFB0000000000FFFFE0
2FFFFE0000000003FFFFD0
0EFFFF5000000008FFFF90
0AFFFFD20000004FFFFF50
04FFFFFD400006FFFFFD00
00AFFFFFFDAAEFFFFFF600
001DFFFFFFFFFFFFFFA000
0002DFFFFFFFFFFFFB1000
00001BFFFFFFFFFF900000
0000005BFFFFFEA3000000
0000000013543000000000
ENDCHAR
STARTCHAR Odieresis
ENCODING 214
SWIDTH 775 0
DWIDTH 22 0
BBX 21 29 0 -1
BITMAP
0000013310000242000000
00003EFFE2009FFF900000
00007FFFF600EFFFF00000
00008FFFF700FFFFF00000
00006FFFF500DFFFD00000
000008BB70003ABA300000
0000000000000000000000
000000027ABB9510000000
000003BFFFFFFFF8100000
00006FFFFFFFFFFFD30000
0007FFFFFFFFFFFFFE3000
005FFFFFFFFFFFFFFFE200
00DFFFFFC6348EFFFFFA00
06FFFFF8000001CFFFFF30
0BFFFFA00000001DFFFF80
1FFFFF2000000006FFFFC0
3FFFFC0000000001FFFFD0
4FFFFA0000000000FFFFF0
4FFFFB0000000000FFFFE0
2FFFFE0000000003FFFFD0
0EFFFF5000000008FFFF90
0AFFFFD20000004FFFFF50
04FFFFFD400006FFFFFD00
00AFFFFFFDAAEFFFFFF600
001DFFFFFFFFFFFFFFA000
0002DFFFFFFFFFFFFB1000
00001BFFFFFFFFFF900000
0000005BFFFFFEA3000000
0000000013543000000000
ENDCHAR
STARTCHAR multiply
ENCODING 215
SWIDTH 521 0
DWIDTH 15 0
BBX 14 14 0 0
BITMAP
01BD4000009D70
0CFFF5000BFFF6
3FFFFF50BFFFFC
0CFFFFFCFFFFF6
01CFFFFFFFFF70
001CFFFFFFF800
0002FFFFFFA000
000BFFFFFFF500
00BFFFFFFFFF50
0AFFFFFEFFFFF4
3FFFFF71CFFFFC
1EFFF7001CFFF9
03EF700001BFA0
00010000000100
ENDCHAR
STARTCHAR Oslash
ENCODING 216
SWIDTH 775 0
DWIDTH 22 0
BBX 21 24 0 -2
BITMAP
00000000000001BC600000
000000027ABB9AFFFB0000
000003BFFFFFFFFFFE0000
00006FFFFFFFFFFFFA0000
0007FFFFFFFFFFFFFE3000
005FFFFFFFFFFFFFFFE100
00DFFFFFC64EFFFFFFF900
06FFFFF8006FFFFFFFFF20
0BFFFF9000DFFFFEFFFF70
1FFFFF1006FFFFB7FFFFB0
2FFFFC000DFFFF42FFFFD0
4FFFFA005FFFFC00FFFFF0
4FFFFB00CFFFF400FFFFE0
3FFFFE05FFFFC003FFFFD0
0EFFFF4CFFFF5009FFFFA0
0AFFFFEFFFFD004FFFFF50
04FFFFFFFFF606FFFFFD00
00AFFFFFFFFBEFFFFFF600
001DFFFFFFFFFFFFFFA000
0002DFFFFFFFFFFFFB1000
00009FFFFFFFFFFF900000
0000DFFFFFFFFEA3000000
00006EFF83543100000000
0000016700000000000000
ENDCHAR
STARTCHAR Ugrave
ENCODING 217
SWIDTH 726 0
DWIDTH 20 0
BBX 19 28 1 -1
BITMAP
00009C83000000000000
0003FFFFE94000000000
0007FFFFFFF800000000
0005FFFFFFF900000000
000027CFFFF500000000
000000016AA000000000
16872000000000687200
AFFFD000000008FFFE10
DFFFF10000000BFFFF30
DFFFF20000000BFFFF30
DFFFF20000000BFFFF30
DFFFF20000000BFFFF30
DFFFF20000000BFFFF30
DFFFF20000000BFFFF30
DFFFF20000000BFFFF30
DFFFF20000000BFFFF30
DFFFF20000000BFFFF30
DFFFF20000000BFFFF30
CFFFF40000000DFFFF20
AFFFF70000002FFFFE00
6FFFFD0000009FFFFB00
1FFFFFA10006FFFFF600
09FFFFFEBADFFFFFE000
01EFFFFFFFFFFFFF5000
004FFFFFFFFFFFF80000
0004EFFFFFFFFF800000
000018EFFFFEA3000000
00000002453100000000
ENDCHAR
STARTCHAR Uacute
ENCODING 218
SWIDTH 726 0
DWIDTH 20 0
BBX 19 29 1 -1
BITMAP
00000000000021000000
00000000048DFE100000
00000029EFFFFF500000
0000009FFFFFFF800000
0000007FFFFFFB200000
0000002FFFB610000000
00000004510000000000
16872000000000687200
AFFFD000000008FFFE10
DFFFF10000000BFFFF30
DFFFF20000000BFFFF30
DFFFF20000000BFFFF30
DFFFF20000000BFFFF30
DFFFF20000000BFFFF30
DFFFF20000000BFFFF30
DFFFF20000000BFFFF30
DFFFF20000000BFFFF30
DFFFF20000000BFFFF30
DFFFF20000000BFFFF30
CFFFF40000000DFFFF20
AFFFF70000002FFFFE00
6FFFFD0000009FFFFB00
1FFFFFA10006FFFFF600
09FFFFFEBADFFFFFE000
01EFFFFFFFFFFFFF5000
004FFFFFFFFFFFF80000
0004EFFFFFFFFF800000
000018EFFFFEA3000000
00000002453100000000
ENDCHAR
STARTCHAR Ucircumflex
ENCODING 219
SWIDTH 726 0
DWIDTH 20 0
BBX 19 29 1 -1
BITMAP
00000000131000000000
0000015AEFFB61000000
00008FFFFFFFFF900000
0001FFFFFFFFFFF10000
0000BFFFFCFFFFC00000
00003DE92028EE300000
00000000000000000000
16872000000000687200
AFFFD000000008FFFE10
DFFFF10000000BFFFF30
DFFFF20000000BFFFF30
DFFFF20000000BFFFF30
DFFFF20000000BFFFF30
DFFFF20000000BFFFF30
DFFFF20000000BFFFF30
DFFFF20000000BFFFF30
DFFFF20000000BFFFF30
DFFFF20000000BFFFF30
DFFFF20000000BFFFF30
CFFFF40000000DFFFF20
AFFFF70000002FFFFE00
6FFFFD0000009FFFFB00
1FFFFFA10006FFFFF600
09FFFFFEBADFFFFFE000
01EFFFFFFFFFFFFF5000
004FFFFFFFFFFFF80000
0004EFFFFFFFFF800000
000018EFFFFEA3000000
00000002453100000000
ENDCHAR
STARTCHAR Udieresis
ENCODING 220
SWIDTH 726 0
DWIDTH 20 0
BBX 19 29 1 -1
BITMAP
00003420000133100000
000BFFF8003EFFE20000
001FFFFD008FFFF60000
001FFFFE008FFFF70000
000EFFFB006FFFF50000
0004AB930008BB700000
00000000000000000000
16872000000000687200
AFFFD000000008FFFE10
DFFFF10000000BFFFF30
DFFFF20000000BFFFF30
DFFFF20000000BFFFF30
DFFFF20000000BFFFF30
DFFFF20000000BFFFF30
DFFFF20000000BFFFF30
DFFFF20000000BFFFF30
DFFFF20000000BFFFF30
DFFFF20000000BFFFF30
DFFFF20000000BFFFF30
CFFFF40000000DFFFF20
AFFFF70000002FFFFE00
6FFFFD0000009FFFFB00
1FFFFFA10006FFFFF600
09FFFFFEBADFFFFFE000
01EFFFFFFFFFFFFF5000
004FFFFFFFFFFFF80000
0004EFFFFFFFFF800000
000018EFFFFEA3000000
00000002453100000000
ENDCHAR
STARTCHAR Yacute
ENCODING 221
SWIDTH 686 0
DWIDTH 19 0
BBX 19 29 0 -1
BITMAP
00000000000030000000
0000000015AEFA000000
0000004BFFFFFF100000
000000EFFFFFFF300000
000000CFFFFFE9000000
0000007FFE9500000000
00000006400000000000
007B50000000004C9200
1DFFF300000001EFFE30
8FFFFD0000000AFFFFB0
5FFFFF7000004FFFFF80
0BFFFFF20001DFFFFD10
02EFFFFB0008FFFFF400
006FFFFF503FFFFF9000
000BFFFFE1CFFFFD1000
0002EFFFFDFFFFF40000
00006FFFFFFFFF900000
00000BFFFFFFFD100000
000002EFFFFFF4000000
0000006FFFFF90000000
0000000EFFFF20000000
0000000DFFFF10000000
0000000DFFFF10000000
0000000DFFFF10000000
0000000DFFFF10000000
0000000DFFFF10000000
0000000CFFFF10000000
00000005EFF800000000
00000000010000000000
ENDCHAR
STARTCHAR Thorn
ENCODING 222
SWIDTH 634 0
DWIDTH 18 0
BBX 16 21 1 0
BITMAP
1687200000000000
AFFFD00000000000
DFFFF10000000000
DFFFFBBBA9610000
DFFFFFFFFFFE7000
DFFFFFFFFFFFFB10
DFFFFFFFFFFFFFA0
DFFFFFFFFFFFFFF4
DFFFF54447EFFFF9
DFFFF100005FFFFD
DFFFF100000FFFFF
DFFFF100001FFFFE
DFFFF10001AFFFFC
DFFFFCCCCEFFFFF7
DFFFFFFFFFFFFFE1
DFFFFFFFFFFFFF40
DFFFFFFFFFFFE400
DFFFFFFFFFD71000
DFFFF33321000000
CFFFF00000000000
4DED700000000000
ENDCHAR
STARTCHAR germandbls
ENCODING 223
SWIDTH 633 0
DWIDTH 18 0
BBX 16 23 1 -1
BITMAP
0000000100000000
0016ADFFFEB50000
04EFFFFFFFFFA000
2EFFFFFFFFFFF400
8FFFFFFFFFFFF700
BFFFFB316FFFF700
DFFFF2006FFFF400
DFFFF003EFFFD000
DFFFF00CFFFF4000
DFFFF01FFFF70000
DFFFF03FFFF40000
DFFFF01FFFFE4000
DFFFF009FFFFF800
DFFFF001CFFFFFB0
DFFFF00008FFFFF6
DFFFF000003EFFFC
DFFFF0000009FFFF
DFFFF01CC63DFFFF
DFFFF06FFFFFFFFD
DFFFF09FFFFFFFF9
DFFFF09FFFFFFFD2
CFFFD019DEFFE920
4CDC500000110000
ENDCHAR
STARTCHAR agrave
ENCODING 224
SWIDTH 596 0
DWIDTH 17 0
BBX 16 22 0 0
BITMAP
0000049510000000
00001EFFFB610000
00004FFFFFFF8000
00004FFFFFFFC000
000004AEFFFF9000
0000000049DE2000
0000000000000000
0000069B9306BB81
0003DFFFFF9FFFF6
004EFFFFFFFFFFF8
01EFFFFFFFFFFFF8
09FFFFFFFFFFFFF8
0EFFFFB43AFFFFF8
3FFFFD1000CFFFF8
4FFFFA00008FFFF8
3FFFFC0000BFFFF8
1FFFFF9117FFFFF8
0AFFFFFFFFFFFFF8
03FFFFFFFFFFFFF8
006FFFFFFFFFFFF8
0006FFFFFFCFFFF7
000029DEC709DEB2
ENDCHAR
STARTCHAR aacute
ENCODING 225
SWIDTH 596 0
DWIDTH 17 0
BBX 16 22 0 0
BITMAP
0000000001693000
00000027BFFFC000
00000AFFFFFFF100
00000EFFFFFFF200
00000BFFFFD93000
000004FD83000000
0000000000000000
0000069B9306BB81
0003DFFFFF9FFFF6
004EFFFFFFFFFFF8
01EFFFFFFFFFFFF8
09FFFFFFFFFFFFF8
0EFFFFB43AFFFFF8
3FFFFD1000CFFFF8
4FFFFA00008FFFF8
3FFFFC0000BFFFF8
1FFFFF9117FFFFF8
0AFFFFFFFFFFFFF8
03FFFFFFFFFFFFF8
006FFFFFFFFFFFF8
0006FFFFFFCFFFF7
000029DEC709DEB2
ENDCHAR
STARTCHAR acircumflex
ENCODING 226
SWIDTH 596 0
DWIDTH 17 0
BBX 16 22 0 0
BITMAP
0000000389500000
000038DFFFFEA500
0004FFFFFFFFFF80
0006FFFFFFFFFFA0
0001EFFE97DFFF30
0000396100059500
0000000000000000
0000069B9306BB81
0003DFFFFF9FFFF6
004EFFFFFFFFFFF8
01EFFFFFFFFFFFF8
09FFFFFFFFFFFFF8
0EFFFFB43AFFFFF8
3FFFFD1000CFFFF8
4FFFFA00008FFFF8
3FFFFC0000BFFFF8
1FFFFF9117FFFFF8
0AFFFFFFFFFFFFF8
03FFFFFFFFFFFFF8
006FFFFFFFFFFFF8
0006FFFFFFCFFFF7
000029DEC709DEB2
ENDCHAR
STARTCHAR atilde
ENCODING 227
SWIDTH 596 0
DWIDTH 17 0
BBX 16 22 0 0
BITMAP
0000017971018500
00004EFFFE6AFF60
0002EFFFFFFFFF90
0006FFFFFFFFFE20
0001DFA19FFFE400
0000151003651000
0000000000000000
0000069B9306BB81
0003DFFFFF9FFFF6
004EFFFFFFFFFFF8
01EFFFFFFFFFFFF8
09FFFFFFFFFFFFF8
0EFFFFB43AFFFFF8
3FFFFD1000CFFFF8
4FFFFA00008FFFF8
3FFFFC0000BFFFF8
1FFFFF9117FFFFF8
0AFFFFFFFFFFFFF8
03FFFFFFFFFFFFF8
006FFFFFFFFFFFF8
0006FFFFFFCFFFF7
000029DEC709DEB2
ENDCHAR
STARTCHAR adieresis
ENCODING 228
SWIDTH 596 0
DWIDTH 17 0
BBX 16 22 0 0
BITMAP
0004998100079950
001EFFFA007FFFF3
002FFFFD009FFFF6
002FFFFC009FFFF6
000DFFF8004FFFE2
0001453000025510
0000000000000000
0000069B9306BB81
0003DFFFFF9FFFF6
004EFFFFFFFFFFF8
01EFFFFFFFFFFFF8
09FFFFFFFFFFFFF8
0EFFFFB43AFFFFF8
3FFFFD1000CFFFF8
4FFFFA00008FFFF8
3FFFFC0000BFFFF8
1FFFFF9117FFFFF8
0AFFFFFFFFFFFFF8
03FFFFFFFFFFFFF8
006FFFFFFFFFFFF8
0006FFFFFFCFFFF7
000029DEC709DEB2
ENDCHAR
STARTCHAR aring
ENCODING 229
SWIDTH 596 0
DWIDTH 17 0
BBX 16 21 0 0
BITMAP
00000006DEA10000
0000004FB8EA0000
0000009E008F0000
0000008E20BE0000
0000002EFEF60000
0000000189400000
0000069B9306BB81
0003DFFFFF9FFFF6
004EFFFFFFFFFFF8
01EFFFFFFFFFFFF8
09FFFFFFFFFFFFF8
0EFFFFB43AFFFFF8
3FFFFD1000CFFFF8
4FFFFA00008FFFF8
3FFFFC0000BFFFF8
1FFFFF9117FFFFF8
0AFFFFFFFFFFFFF8
03FFFFFFFFFFFFF8
006FFFFFFFFFFFF8
0006FFFFFFCFFFF7
000029DEC709DEB2
ENDCHAR
STARTCHAR ae
ENCODING 230
SWIDTH 910 0
DWIDTH 25 0
BBX 25 16 0 -1
BITMAP
00016BDEEB600027BDDB820000
006EFFFFFFFD38FFFFFFFF8000
06FFFFFFFFFFFFFFFFFFFFF800
0DFFFFFFFFFFFFFFFFFFFFFF30
08FFFFD9BFFFFFFFE86CFFFF90
01CFF91009FFFFFE2001FFFFB0
0017400002FFFFFB5558FFFFB0
0015ABCC94EFFFFFFFFFFFFF70
04EFFFFFFFFFFFFFFFFFFFF900
1EFFFEBBCEFFFFFB2222221000
4FFFF10000BFFFFF820149A100
4FFFF7125BFFFFFFFFFFFFFA00
1FFFFFFFFFFFFFFFFFFFFFFF00
08FFFFFFFFF72DFFFFFFFFFB00
007EFFFFFB30017CFFFFEB6100
00002332000000001231000000
ENDCHAR
STARTCHAR ccedilla
ENCODING 231
SWIDTH 524 0
DWIDTH 15 0
BBX 14 22 0 -6
BITMAP
00000000100000
000017CFFEB600
0004EFFFFFFFD3
005FFFFFFFFFFD
02FFFFFFFFFFFD
0AFFFFFFFFFFF6
1EFFFFC415CF90
3FFFFF20000100
4FFFFD00000000
3FFFFF10000000
1FFFFFB102AC40
0BFFFFFFEFFFF3
04FFFFFFFFFFFC
007FFFFFFFFFFD
0006FFFFFFFFE4
000029FFFFE920
000004FFFF7000
000001DCDFE000
000000438FF100
000003FFFFC000
000002EFFD3000
00000015400000
ENDCHAR
STARTCHAR egrave
ENCODING 232
SWIDTH 573 0
DWIDTH 16 0
BBX 16 23 0 -1
BITMAP
0000196200000000
00009FFFC8300000
0000EFFFFFFC1000
0000EFFFFFFF2000
000028DFFFFE0000
000000027CF70000
0000000010000000
000017CFFFD82000
0005EFFFFFFFE500
006FFFFFFFFFFF30
03FFFFFFFFFFFFC0
0AFFFFFA68FFFFF2
1FFFFF70009FFFF4
3FFFFF5555CFFFF4
4FFFFFFFFFFFFFE1
4FFFFFFFFFFFFE50
1FFFFF5444443100
0CFFFFB300159500
05FFFFFFEEFFFF30
00AFFFFFFFFFFF80
001BFFFFFFFFFF70
00006CFFFFFFE800
0000002455420000
ENDCHAR
STARTCHAR eacute
ENCODING 233
SWIDTH 573 0
DWIDTH 16 0
BBX 16 23 0 -1
BITMAP
0000000002791000
00000038DFFF8000
00001DFFFFFFD000
00003FFFFFFFD000
00001EFFFFC82000
000007FC72000000
0000000010000000
000017CFFFD82000
0005EFFFFFFFE500
006FFFFFFFFFFF30
03FFFFFFFFFFFFC0
0AFFFFFA68FFFFF2
1FFFFF70009FFFF4
3FFFFF5555CFFFF4
4FFFFFFFFFFFFFE1
4FFFFFFFFFFFFE50
1FFFFF5444443100
0CFFFFB300159500
05FFFFFFEEFFFF30
00AFFFFFFFFFFF80
001BFFFFFFFFFF70
00006CFFFFFFE800
0000002455420000
ENDCHAR
STARTCHAR ecircumflex
ENCODING 234
SWIDTH 573 0
DWIDTH 16 0
BBX 16 23 0 -1
BITMAP
0000002795100000
00027CFFFFFA5000
002FFFFFFFFFFA00
003FFFFFFFFFFC00
000CFFFA6CFFF600
0001872000497000
0000000010000000
000017CFFFD82000
0005EFFFFFFFE500
006FFFFFFFFFFF30
03FFFFFFFFFFFFC0
0AFFFFFA68FFFFF2
1FFFFF70009FFFF4
3FFFFF5555CFFFF4
4FFFFFFFFFFFFFE1
4FFFFFFFFFFFFE50
1FFFFF5444443100
0CFFFFB300159500
05FFFFFFEEFFFF30
00AFFFFFFFFFFF80
001BFFFFFFFFFF70
00006CFFFFFFE800
0000002455420000
ENDCHAR
STARTCHAR edieresis
ENCODING 235
SWIDTH 573 0
DWIDTH 16 0
BBX 16 23 0 -1
BITMAP
0049981001799500
01FFFF9007FFFF30
03FFFFC00AFFFF50
03FFFFC009FFFF50
00DFFF7005FFFE10
0014530000254100
0000000010000000
000017CFFFD82000
0005EFFFFFFFE500
006FFFFFFFFFFF30
03FFFFFFFFFFFFC0
0AFFFFFA68FFFFF2
1FFFFF70009FFFF4
3FFFFF5555CFFFF4
4FFFFFFFFFFFFFE1
4FFFFFFFFFFFFE50
1FFFFF5444443100
0CFFFFB300159500
05FFFFFFEEFFFF30
00AFFFFFFFFFFF80
001BFFFFFFFFFF70
00006CFFFFFFE800
0000002455420000
ENDCHAR
STARTCHAR igrave
ENCODING 236
SWIDTH 255 0
DWIDTH 7 0
BBX 9 22 -2 0
BITMAP
0495100000
0DFFFB6200
3FFFFFFF90
3FFFFFFFD0
049EFFFFA0
000048DE30
0000000000
00039B9300
000BFFFD00
000DFFFF00
000DFFFF00
000DFFFF00
000DFFFF00
000DFFFF00
000DFFFF00
000DFFFF00
000DFFFF00
000DFFFF00
000DFFFF00
000DFFFF00
000CFFFE00
0005DFE700
ENDCHAR
STARTCHAR iacute
ENCODING 237
SWIDTH 255 0
DWIDTH 7 0
BBX 9 22 0 0
BITMAP
0000038700
0159EFFF40
4EFFFFFF80
7FFFFFFF90
4FFFFFB610
0CEA510000
0000000000
039B930000
0BFFFD0000
0DFFFF0000
0DFFFF0000
0DFFFF0000
0DFFFF0000
0DFFFF0000
0DFFFF0000
0DFFFF0000
0DFFFF0000
0DFFFF0000
0DFFFF0000
0DFFFF0000
0CFFFE0000
05DFE70000
ENDCHAR
STARTCHAR icircumflex
ENCODING 238
SWIDTH 255 0
DWIDTH 7 0
BBX 12 22 -2 0
BITMAP
000169720000
16BFFFFFC710
DFFFFFFFFFE1
EFFFFFFFFFF2
8FFFC6AFFFA0
078300028910
000000000000
00039B930000
000BFFFD0000
000DFFFF0000
000DFFFF0000
000DFFFF0000
000DFFFF0000
000DFFFF0000
000DFFFF0000
000DFFFF0000
000DFFFF0000
000DFFFF0000
000DFFFF0000
000DFFFF0000
000CFFFE0000
0005DFE70000
ENDCHAR
STARTCHAR idieresis
ENCODING 239
SWIDTH 255 0
DWIDTH 7 0
BBX 13 22 -3 0
BITMAP
17995000389820
8FFFF200EFFFB0
AFFFF502FFFFD0
AFFFF502FFFFD0
6FFFE100CFFF80
03541000145300
00000000000000
000029B9300000
0000BFFFE00000
0000DFFFF00000
0000DFFFF10000
0000DFFFF10000
0000DFFFF10000
0000DFFFF10000
0000DFFFF10000
0000DFFFF10000
0000DFFFF10000
0000DFFFF10000
0000DFFFF10000
0000DFFFF10000
0000CFFFE00000
00005DFE700000
ENDCHAR
STARTCHAR eth
ENCODING 240
SWIDTH 585 0
DWIDTH 16 0
BBX 16 24 0 -1
BITMAP
0000000007300000
000004728FE10000
00003FFFFFB00000
00009FFFFF700000
00006FFFFFF80000
000009FFFFFF7000
00003FFB9FFFF400
00001BD105FFFD00
00000046637FFF60
00007EFFFFCDFFC0
001BFFFFFFFFFFF2
00BFFFFFFFFFFFF5
06FFFFFFFFFFFFF8
0DFFFFB438FFFFF9
2FFFFD00008FFFFA
4FFFF900003FFFFA
4FFFFA00004FFFF9
2FFFFE3001CFFFF6
0CFFFFFA9EFFFFF1
05FFFFFFFFFFFF80
009FFFFFFFFFFC00
0008FFFFFFFFC100
00003BFFFFD70000
0000001332000000
ENDCHAR
STARTCHAR ntilde
ENCODING 241
SWIDTH 606 0
DWIDTH 17 0
BBX 15 22 1 0
BITMAP
0000598400581000
001BFFFF96FFD100
009FFFFFFFFFF100
00EFFFFFFFFF8000
007FE34DFFF90000
0003300156300000
0000000000000000
3ABA4049B9500000
CFFFD8FFFFFC2000
DFFFFFFFFFFFE200
DFFFFFFFFFFFFB00
DFFFFFFFFFFFFF40
DFFFFE535EFFFF80
DFFFF40005FFFFB0
DFFFF10002FFFFC0
DFFFF00001FFFFD0
DFFFF00001FFFFD0
DFFFF00001FFFFD0
DFFFF00001FFFFD0
DFFFF00001FFFFD0
CFFFE00000FFFFC0
5DED6000007DED40
ENDCHAR
STARTCHAR ograve
ENCODING 242
SWIDTH 600 0
DWIDTH 17 0
BBX 17 23 0 -1
BITMAP
000008830000000000
00005FFFD940000000
0000AFFFFFFE300000
0000AFFFFFFF600000
000017BFFFFF300000
000000016BEB000000
000000001000000000
000017CFFFC6000000
0004EFFFFFFFD30000
005FFFFFFFFFFE3000
02FFFFFFFFFFFFD100
0AFFFFFFDFFFFFF700
0EFFFFA102BFFFFC00
3FFFFD00001FFFFF00
4FFFFB00000EFFFF10
3FFFFD00001FFFFF00
1FFFFF7001AFFFFD00
0BFFFFFDBEFFFFF800
03FFFFFFFFFFFFE100
006FFFFFFFFFFF4000
0006EFFFFFFFE50000
000029EFFFE9200000
000000023200000000
ENDCHAR
STARTCHAR oacute
ENCODING 243
SWIDTH 600 0
DWIDTH 17 0
BBX 17 23 0 -1
BITMAP
000000000169200000
00000027CFFFB00000
00000BFFFFFFF10000
00000FFFFFFFF10000
00000CFFFFD9300000
000005FC8300000000
000000001000000000
000017CFFFC6000000
0004EFFFFFFFD30000
005FFFFFFFFFFE3000
02FFFFFFFFFFFFD100
0AFFFFFFDFFFFFF700
0EFFFFA102BFFFFC00
3FFFFD00001FFFFF00
4FFFFB00000EFFFF10
3FFFFD00001FFFFF00
1FFFFF7001AFFFFD00
0BFFFFFDBEFFFFF800
03FFFFFFFFFFFFE100
006FFFFFFFFFFF4000
0006EFFFFFFFE50000
000029EFFFE9200000
000000023200000000
ENDCHAR
STARTCHAR ocircumflex
ENCODING 244
SWIDTH 600 0
DWIDTH 17 0
BBX 17 23 0 -1
BITMAP
000000169610000000
00016BFFFFFC710000
000EFFFFFFFFFD0000
001FFFFFFFFFFF0000
0009FFFB6BFFF90000
000188300038810000
000000001000000000
000017CFFFC6000000
0004EFFFFFFFD30000
005FFFFFFFFFFE3000
02FFFFFFFFFFFFD100
0AFFFFFFDFFFFFF700
0EFFFFA102BFFFFC00
3FFFFD00001FFFFF00
4FFFFB00000EFFFF10
3FFFFD00001FFFFF00
1FFFFF7001AFFFFD00
0BFFFFFDBEFFFFF800
03FFFFFFFFFFFFE100
006FFFFFFFFFFF4000
0006EFFFFFFFE50000
000029EFFFE9200000
000000023200000000
ENDCHAR
STARTCHAR otilde
ENCODING 245
SWIDTH 600 0
DWIDTH 17 0
BBX 17 23 0 -1
BITMAP
000006983006710000
0001CFFFF87FFC0000
000BFFFFFFFFFE0000
001FFFFFFFFFF60000
0009FE25EFFF800000
000042001562000000
000000001000000000
000017CFFFC6000000
0004EFFFFFFFD30000
005FFFFFFFFFFE3000
02FFFFFFFFFFFFD100
0AFFFFFFDFFFFFF700
0EFFFFA102BFFFFC00
3FFFFD00001FFFFF00
4FFFFB00000EFFFF10
3FFFFD00001FFFFF00
1FFFFF7001AFFFFD00
0BFFFFFDBEFFFFF800
03FFFFFFFFFFFFE100
006FFFFFFFFFFF4000
0006EFFFFFFFE50000
000029EFFFE9200000
000000023200000000
ENDCHAR
STARTCHAR odieresis
ENCODING 246
SWIDTH 600 0
DWIDTH 17 0
BBX 17 23 0 -1
BITMAP
002898200069960000
00DFFFC004FFFF6000
00FFFFF007FFFF8000
00FFFFF006FFFF8000
00AFFFA002FFFF4000
000454000025520000
000000001000000000
000017CFFFC6000000
0004EFFFFFFFD30000
005FFFFFFFFFFE3000
02FFFFFFFFFFFFD100
0AFFFFFFDFFFFFF700
0EFFFFA102BFFFFC00
3FFFFD00001FFFFF00
4FFFFB00000EFFFF10
3FFFFD00001FFFFF00
1FFFFF7001AFFFFD00
0BFFFFFDBEFFFFF800
03FFFFFFFFFFFFE100
006FFFFFFFFFFF4000
0006EFFFFFFFE50000
000029EFFFE9200000
000000023200000000
ENDCHAR
STARTCHAR divide
ENCODING 247
SWIDTH 503 0
DWIDTH 14 0
BBX 14 16 0 0
BITMAP
00000143100000
00000DFFE10000
00003FFFF40000
00003FFFF40000
00001DFFE10000
00000144100000
06AAAAAAAAAA70
3FFFFFFFFFFFF4
4FFFFFFFFFFFF6
2FFFFFFFFFFFF3
02555555555520
00000499500000
00001FFFF20000
00003FFFF50000
00002FFFF40000
000008DEA00000
ENDCHAR
STARTCHAR oslash
ENCODING 248
SWIDTH 600 0
DWIDTH 17 0
BBX 17 25 0 -5
BITMAP
000000000000100000
00000000000BFC4000
00000000005FFFF300
0000000000CFFFF300
0000000014FFFFD000
000017CFFFFFFF6000
0004EFFFFFFFFD0000
004FFFFFFFFFFE2000
02EFFFFFFFFFFFD000
0AFFFFFFEFFFFFF700
0EFFFFA102CFFFFC00
3FFFFD00002FFFFF00
4FFFFB00000EFFFF10
3FFFFC00001FFFFF00
1FFFFF7001AFFFFD00
0BFFFFFDAEFFFFF800
03FFFFFFFFFFFFE100
007FFFFFFFFFFF4000
001EFFFFFFFFE50000
007FFFFFFFE9200000
00EFFFF54200000000
05FFFFA00000000000
07FFFF300000000000
01AFFA000000000000
000241000000000000
ENDCHAR
STARTCHAR ugrave
ENCODING 249
SWIDTH 606 0
DWIDTH 17 0
BBX 15 22 1 0
BITMAP
0000883000000000
0006FFFD94000000
000AFFFFFFE30000
000AFFFFFFF60000
00017CFFFFF30000
00000016BEA00000
0000000000000000
3ABA4000004BBA30
BFFFE00000EFFFB0
DFFFF00001FFFFD0
DFFFF10001FFFFD0
DFFFF10001FFFFD0
DFFFF10001FFFFD0
DFFFF10001FFFFD0
DFFFF10001FFFFD0
CFFFF30004FFFFD0
AFFFFC203CFFFFD0
5FFFFFFFFFFFFFD0
0DFFFFFFFFFFFFD0
04FFFFFFFFFFFFD0
005EFFFFFAEFFFC0
00028CEC607DED40
ENDCHAR
STARTCHAR uacute
ENCODING 250
SWIDTH 606 0
DWIDTH 17 0
BBX 15 22 1 0
BITMAP
0000000004870000
0000015AEFFF3000
00005EFFFFFF7000
00009FFFFFFF7000
00005FFFFFB60000
00000CEA51000000
0000000000000000
3ABA4000004BBA30
BFFFE00000EFFFB0
DFFFF00001FFFFD0
DFFFF10001FFFFD0
DFFFF10001FFFFD0
DFFFF10001FFFFD0
DFFFF10001FFFFD0
DFFFF10001FFFFD0
CFFFF30004FFFFD0
AFFFFC203CFFFFD0
5FFFFFFFFFFFFFD0
0DFFFFFFFFFFFFD0
04FFFFFFFFFFFFD0
005EFFFFFAEFFFC0
00028CEC607DED40
ENDCHAR
STARTCHAR ucircumflex
ENCODING 251
SWIDTH 606 0
DWIDTH 17 0
BBX 15 22 1 0
BITMAP
0000016972000000
0016BFFFFFC72000
00CFFFFFFFFFE100
00EFFFFFFFFFF200
007FFFC6AFFFB000
0007830002891000
0000000000000000
3ABA4000004BBA30
BFFFE00000EFFFB0
DFFFF00001FFFFD0
DFFFF10001FFFFD0
DFFFF10001FFFFD0
DFFFF10001FFFFD0
DFFFF10001FFFFD0
DFFFF10001FFFFD0
CFFFF30004FFFFD0
AFFFFC203CFFFFD0
5FFFFFFFFFFFFFD0
0DFFFFFFFFFFFFD0
04FFFFFFFFFFFFD0
005EFFFFFAEFFFC0
00028CEC607DED40
ENDCHAR
STARTCHAR udieresis
ENCODING 252
SWIDTH 606 0
DWIDTH 17 0
BBX 15 22 1 0
BITMAP
0289930005997100
0AFFFE002FFFF800
0DFFFF205FFFFA00
0DFFFF204FFFFA00
08FFFC001EFFF600
0035410001453000
0000000000000000
3ABA4000004BBA30
BFFFE00000EFFFB0
DFFFF00001FFFFD0
DFFFF10001FFFFD0
DFFFF10001FFFFD0
DFFFF10001FFFFD0
DFFFF10001FFFFD0
DFFFF10001FFFFD0
CFFFF30004FFFFD0
AFFFFC203CFFFFD0
5FFFFFFFFFFFFFD0
0DFFFFFFFFFFFFD0
04FFFFFFFFFFFFD0
005EFFFFFAEFFFC0
00028CEC607DED40
ENDCHAR
STARTCHAR yacute
ENCODING 253
SWIDTH 604 0
DWIDTH 17 0
BBX 17 29 0 -7
BITMAP
000000000049500000
00000015AEFFF10000
000006FFFFFFF60000
00000AFFFFFFF60000
000007FFFFEA500000
000001DE9500000000
000000000000000000
03CF90000000AEB300
4FFFF4000005FFFF40
8FFFFD00000BFFFF60
2FFFFF70003FFFFF20
08FFFFE200AFFFFA00
01DFFFFA02FFFFF300
005FFFFF49FFFFB000
000BFFFFDEFFFF5000
0002FFFFFFFFFD0000
00008FFFFFFFF60000
00001EFFFFFFE10000
000006FFFFFF800000
000000CFFFFF100000
000000AFFFF9000000
000002FFFFF3000000
000009FFFFB0000000
00001EFFFF40000000
00007FFFFC00000000
0000DFFFF600000000
0001FFFFE000000000
00008FFF7000000000
000003870000000000
ENDCHAR
STARTCHAR thorn
ENCODING 254
SWIDTH 580 0
DWIDTH 16 0
BBX 15 29 1 -7
BITMAP
6EFD300000000000
CFFF900000000000
DFFFA00000000000
DFFFA00000000000
DFFFA00000000000
DFFFA00000000000
DFFFA00000000000
DFFFA28BA7100000
DFFFDEFFFFE50000
DFFFFFFFFFFF6000
DFFFFFFFFFFFF400
DFFFFFFFFFFFFC00
DFFFFC549FFFFF30
DFFFE2000BFFFF70
DFFFC00006FFFF80
DFFFE00009FFFF70
DFFFFA106FFFFF40
DFFFFFFFFFFFFE00
DFFFFFFFFFFFF600
DFFFFFFFFFFFA000
DFFFEFFFFFF90000
DFFFA5BEDA400000
DFFFA00000000000
DFFFA00000000000
DFFFA00000000000
DFFFA00000000000
CFFF900000000000
9FFF500000000000
0453000000000000
ENDCHAR
STARTCHAR ydieresis
ENCODING 255
SWIDTH 604 0
DWIDTH 17 0
BBX 17 29 0 -7
BITMAP
000699600028982000
006FFFF400DFFFC000
008FFFF700FFFFF000
008FFFF600FFFFF000
004FFFF200AFFFA000
000255200004540000
000000000000000000
03CF90000000AEB300
4FFFF4000005FFFF40
8FFFFD00000BFFFF60
2FFFFF70003FFFFF20
08FFFFE200AFFFFA00
01DFFFFA02FFFFF300
005FFFFF49FFFFB000
000BFFFFDEFFFF5000
0002FFFFFFFFFD0000
00008FFFFFFFF60000
00001EFFFFFFE10000
000006FFFFFF800000
000000CFFFFF100000
000000AFFFF9000000
000002FFFFF3000000
000009FFFFB0000000
00001EFFFF40000000
00007FFFFC00000000
0000DFFFF600000000
0001FFFFE000000000
00008FFF7000000000
000003870000000000
ENDCHAR
STARTCHAR dotlessi
ENCODING 305
SWIDTH 255 0
DWIDTH 7 0
BBX 5 15 1 0
BITMAP
39B930
BFFFD0
DFFFF0
DFFFF0
DFFFF0
DFFFF0
DFFFF0
DFFFF0
DFFFF0
DFFFF0
DFFFF0
DFFFF0
DFFFF0
CFFFE0
5DFE70
ENDCHAR
STARTCHAR Lslash
ENCODING 321
SWIDTH 687 0
DWIDTH 19 0
BBX 19 21 0 0
BITMAP
00002786100000000000
0000DFFFA00000000000
0001FFFFD00000000000
0001FFFFD00000000000
0001FFFFD00000000000
0001FFFFD00000000000
0001FFFFD00000000000
0001FFFFE7BD50000000
0001FFFFFFFFC0000000
027BFFFFFFFFD0000000
2FFFFFFFFFEB40000000
3FFFFFFFE40000000000
0DFEFFFFD00000000000
0132FFFFD00000000000
0001FFFFD00000000000
0001FFFFD00000000000
0001FFFFD22222222100
0001FFFFFFFFFFFFFF30
0001FFFFFFFFFFFFFF80
0000FFFFFFFFFFFFFF70
00007EFFFFFFFFFFFD30
ENDCHAR
STARTCHAR lslash
ENCODING 322
SWIDTH 468 0
DWIDTH 13 0
BBX 13 22 0 0
BITMAP
00005AA7000000
0002FFFF600000
0004FFFF900000
0004FFFF900000
0004FFFF900000
0004FFFF900000
0004FFFF900000
0004FFFF900000
0004FFFFB8CD20
0004FFFFFFFF80
048DFFFFFFFF90
6FFFFFFFFFE920
7FFFFFFFB30000
2FFEFFFF900000
0224FFFF900000
0004FFFF900000
0004FFFFA00000
0004FFFFFB8000
0002FFFFFFF300
0000DFFFFFF400
00007FFFFFF400
000005BEFFC100
ENDCHAR
STARTCHAR OE
ENCODING 338
SWIDTH 1092 0
DWIDTH 31 0
BBX 30 21 0 0
BITMAP
000000015788888888888888888861
0000019FFFFFFFFFFFFFFFFFFFFFFA
00005EFFFFFFFFFFFFFFFFFFFFFFFD
0006FFFFFFFFFFFFFFFFFFFFFFFFFC
004FFFFFFFFFFFFFFFFFFFFFFFFFF9
00DFFFFFD85556FFFFD77777777650
06FFFFF9100003FFFFC00000000000
0CFFFFA0000003FFFFC00000000000
1FFFFF20000003FFFFEBBBBBB92000
3FFFFC00000003FFFFFFFFFFFFA000
4FFFFA00000003FFFFFFFFFFFFC000
3FFFFB00000003FFFFFFFFFFFFB000
2FFFFE00000003FFFFFFFFFFFF5000
0DFFFF50000003FFFFC33333310000
09FFFFE3000003FFFFC00000000000
02FFFFFE710003FFFFC00000000000
008FFFFFFFDDDDFFFFFEEEEEEEEED4
000BFFFFFFFFFFFFFFFFFFFFFFFFFC
0001BFFFFFFFFFFFFFFFFFFFFFFFFD
000007EFFFFFFFFFFFFFFFFFFFFFFB
00000016BDFFFFFFFFFFFFFFFFFFD4
ENDCHAR
STARTCHAR oe
ENCODING 339
SWIDTH 944 0
DWIDTH 26 0
BBX 26 16 0 -1
BITMAP
000017CEFEB500028BDDB82000
0004DFFFFFFFC39FFFFFFFF800
005FFFFFFFFFFFFFFFFFFFFF80
02EFFFFFFFFFFFFFFFFFFFFFF2
0AFFFFFFEFFFFFFFFE76CFFFF8
1FFFFFA103CFFFFFD1002FFFFB
3FFFFD00002FFFFFA5559FFFFA
5FFFFA00000EFFFFFFFFFFFFF6
4FFFFC00001FFFFFFFFFFFFF90
1FFFFF6001AFFFFFA222222100
0CFFFFFCAEFFFFFFF820149910
04FFFFFFFFFFFFFFFFFFFFFF90
007FFFFFFFFFFFFFFFFFFFFFE0
0007FFFFFFFFE7DFFFFFFFFFB0
00003AFFFFEA2017CFFFFEA600
00000013430000000123100000
ENDCHAR
STARTCHAR Scaron
ENCODING 352
SWIDTH 583 0
DWIDTH 16 0
BBX 16 29 0 -1
BITMAP
0000310000031000
000AFF9318EFD100
003FFFFFFFFFF800
006FFFFFFFFFFB00
0019EFFFFFFFB300
0000049EFB610000
0000000000000000
000028BCCB830000
0008FFFFFFFFB200
008FFFFFFFFFFE20
03FFFFFFFFFFFF60
0AFFFFFCCFFFFE10
0DFFFF5002CFF400
0EFFFF1000032000
0CFFFF9100000000
08FFFFFEB8400000
02EFFFFFFFFE9200
005FFFFFFFFFFE40
00029FFFFFFFFFD0
0000016AEFFFFFF5
0000000004DFFFF8
02CF9000006FFFF9
0CFFFB10009FFFF8
4FFFFFD659FFFFF5
1EFFFFFFFFFFFFE0
04FFFFFFFFFFFF50
004EFFFFFFFFE500
00018EFFFFE92000
0000002442000000
ENDCHAR
STARTCHAR scaron
ENCODING 353
SWIDTH 489 0
DWIDTH 14 0
BBX 13 23 0 -1
BITMAP
00883000288100
08FFFB6BFFFA00
0EFFFFFFFFFF10
0DFFFFFFFFFE10
016BFFFFFC7100
00001696200000
00000000000000
0005BEFFDB6100
00AFFFFFFFFE20
06FFFFFFFFFF40
0BFFFFDDFFFC00
0CFFFB00159200
0AFFFFB7410000
06FFFFFFFFA200
01DFFFFFFFFE20
002BFFFFFFFFA0
000039CFFFFFD0
04FD6101BFFFE0
0DFFFEBCFFFFD0
4FFFFFFFFFFF80
1CFFFFFFFFFD10
005BFFFFFD8100
00001332100000
ENDCHAR
STARTCHAR Ydieresis
ENCODING 376
SWIDTH 686 0
DWIDTH 19 0
BBX 19 29 0 -1
BITMAP
00001330000034200000
0005FFFD100BFFF70000
000AFFFF402FFFFD0000
000AFFFF502FFFFD0000
0008FFFF200EFFFB0000
00019BA60004AB920000
00000000000000000000
007B50000000004C9200
1DFFF300000001EFFE30
8FFFFD0000000AFFFFB0
5FFFFF7000004FFFFF80
0BFFFFF20001DFFFFD10
02EFFFFB0008FFFFF400
006FFFFF503FFFFF9000
000BFFFFE1CFFFFD1000
0002EFFFFDFFFFF40000
00006FFFFFFFFF900000
00000BFFFFFFFD100000
000002EFFFFFF4000000
0000006FFFFF90000000
0000000EFFFF20000000
0000000DFFFF10000000
0000000DFFFF10000000
0000000DFFFF10000000
0000000DFFFF10000000
0000000DFFFF10000000
0000000CFFFF10000000
00000005EFF800000000
00000000010000000000
ENDCHAR
STARTCHAR Zcaron
ENCODING 381
SWIDTH 643 0
DWIDTH 18 0
BBX 18 29 0 -1
BITMAP
000013000001300000
0001DFE8229EFB0000
0006FFFFFFFFFF5000
0009FFFFFFFFFF8000
0002AEFFFFFFE92000
0000015AEEA5000000
000000000000000000
038888888888888400
1FFFFFFFFFFFFFFF60
4FFFFFFFFFFFFFFFD0
4FFFFFFFFFFFFFFFC0
1EFFFFFFFFFFFFFF50
014555555AFFFFFA00
000000003FFFFFD100
00000001CFFFFF3000
00000009FFFFF70000
0000005FFFFFB00000
000002EFFFFE200000
00000BFFFFF5000000
00007FFFFF90000000
0003FFFFFC00000000
001DFFFFE300000000
00AFFFFF6000000000
06FFFFFFCCCCCCCB60
1EFFFFFFFFFFFFFFF2
4FFFFFFFFFFFFFFFF4
2FFFFFFFFFFFFFFFF3
06EFFFFFFFFFFFFFA0
000111111111111000
ENDCHAR
STARTCHAR zcaron
ENCODING 382
SWIDTH 586 0
DWIDTH 16 0
BBX 16 22 0 0
BITMAP
0001882000387000
000AFFFB6BFFF800
001FFFFFFFFFFE00
000EFFFFFFFFFD00
00017CFFFFFB6100
0000002696100000
0000000000000000
019BBBBBBBBBB920
08FFFFFFFFFFFFE1
0AFFFFFFFFFFFFF4
09FFFFFFFFFFFFF2
04EFFFFFFFFFFF80
0002222BFFFFF700
000001BFFFFF6000
00002CFFFFF50000
0002DFFFFE400000
003EFFFFE3000000
04EFFFFFEEEEEEB2
1EFFFFFFFFFFFFF9
4FFFFFFFFFFFFFFA
1EFFFFFFFFFFFFF9
05DFFFFFFFFFFFD3
ENDCHAR
STARTCHAR florin
ENCODING 402
SWIDTH 529 0
DWIDTH 15 0
BBX 15 28 0 -7
BITMAP
00000000049BB900
00000001BFFFFF40
0000001CFFFFFF50
0000008FFFFFFF30
000001EFFFFFFA00
000004FFFFB10000
000006FFFF700000
001ADEFFFFDCDA10
008FFFFFFFFFFF50
00BFFFFFFFFFFF50
00BFFFFFFFFFFF30
005EFFFFFFEFD800
00000FFFFC000000
00002FFFFB000000
00004FFFF9000000
00005FFFF7000000
00007FFFF6000000
00009FFFF4000000
0000AFFFF2000000
0000CFFFF1000000
0000EFFFE0000000
0001FFFFC0000000
036BFFFF90000000
5FFFFFFF30000000
CFFFFFFB00000000
FFFFFFE200000000
CFFFFA2000000000
1443000000000000
ENDCHAR
STARTCHAR circumflex
ENCODING 710
SWIDTH 603 0
DWIDTH 17 0
BBX 12 6 2 16
BITMAP
000026961000
017CFFFFFB61
1EFFFFFFFFFD
1FFFFFFFFFFE
09FFFB6BFFF8
018820003880
ENDCHAR
STARTCHAR caron
ENCODING 711
SWIDTH 600 0
DWIDTH 17 0
BBX 12 6 2 16
BITMAP
018820003870
0AFFFA6CFFF8
1FFFFFFFFFFE
1EFFFFFFFFFD
017CFFFFFB61
000027961000
ENDCHAR
STARTCHAR dotaccent
ENCODING 729
SWIDTH 285 0
DWIDTH 8 0
BBX 6 6 1 19
BITMAP
048860
2FFFF6
5FFFF8
4FFFF8
1EFFF4
014420
ENDCHAR
STARTCHAR ring
ENCODING 730
SWIDTH 378 0
DWIDTH 11 0
BBX 8 8 1 18
BITMAP
0039B810
06FFFFD2
1EF63AF9
4FA001FD
4FB002FD
0DFA7DF8
03EFFFA0
00157300
ENDCHAR
STARTCHAR ogonek
ENCODING 731
SWIDTH 570 0
DWIDTH 16 0
BBX 7 7 4 -6
BITMAP
006BC700
07FFFF50
0EFDCD10
1FF83400
0CFFFF40
03EFFE30
00155100
ENDCHAR
STARTCHAR tilde
ENCODING 732
SWIDTH 584 0
DWIDTH 16 0
BBX 12 6 2 16
BITMAP
004895003920
08FFFFB5DFE2
6FFFFFFFFFF4
BFFFFFFFFFB0
4FF52CFFFC10
024000464000
ENDCHAR
STARTCHAR endash
ENCODING 8211
SWIDTH 561 0
DWIDTH 16 0
BBX 16 5 0 5
BITMAP
2CEEEEEEEEEEEE90
8FFFFFFFFFFFFFF3
8FFFFFFFFFFFFFF4
6FFFFFFFFFFFFFF2
0799999999999950
ENDCHAR
STARTCHAR emdash
ENCODING 8212
SWIDTH 693 0
DWIDTH 19 0
BBX 19 5 0 5
BITMAP
2CEEEEEEEEEEEEEEED60
8FFFFFFFFFFFFFFFFFE0
8FFFFFFFFFFFFFFFFFF0
6FFFFFFFFFFFFFFFFFD0
07999999999999999830
ENDCHAR
STARTCHAR quoteleft
ENCODING 8216
SWIDTH 237 0
DWIDTH 7 0
BBX 6 11 0 10
BITMAP
000165
003EFD
01EFF7
08FF60
0DFF20
2FFFE5
4FFFFD
4FFFFE
3FFFFD
0BFFF7
001210
ENDCHAR
STARTCHAR quoteright
ENCODING 8217
SWIDTH 237 0
DWIDTH 7 0
BBX 6 11 0 10
BITMAP
027860
1EFFFA
4FFFFE
4FFFFE
2FFFFC
04CFFA
008FF6
02EFE1
2FFF50
3FD500
020000
ENDCHAR
STARTCHAR quotesinglbase
ENCODING 8218
SWIDTH 237 0
DWIDTH 7 0
BBX 6 11 0 -5
BITMAP
002310
0CFFF7
3FFFFD
4FFFFE
3FFFFD
09EFFB
007FF7
00CFF2
1CFF80
3FFA00
174000
ENDCHAR
STARTCHAR quotedblleft
ENCODING 8220
SWIDTH 482 0
DWIDTH 14 0
BBX 13 11 0 10
BITMAP
00016500002640
003EFD0005EFB0
01EFF7002FFE50
08FF6000AFF400
0DFF2001FFE000
2FFFE504FFFD40
4FFFFD06FFFFA0
4FFFFE07FFFFC0
3FFFFD06FFFFB0
0BFFF701CFFE50
00121000012000
ENDCHAR
STARTCHAR quotedblright
ENCODING 8221
SWIDTH 482 0
DWIDTH 14 0
BBX 13 11 0 10
BITMAP
02786000378500
1EFFFA03FFFF80
4FFFFE06FFFFB0
4FFFFE07FFFFC0
2FFFFC04FFFFB0
04CFFA006DFF80
008FF6000BFF30
02EFE1003FFC00
2FFF5004FFE300
3FD50005FD4000
02000000200000
ENDCHAR
STARTCHAR quotedblbase
ENCODING 8222
SWIDTH 482 0
DWIDTH 14 0
BBX 13 11 0 -5
BITMAP
00231000023100
0CFFF701DFFE50
3FFFFD06FFFFB0
4FFFFE07FFFFC0
3FFFFD05FFFFB0
09EFFB01BFFF90
007FF7000AFF50
00CFF2001EFE00
1CFF8002DFF600
3FFA0006FF8000
17400002630000
ENDCHAR
STARTCHAR dagger
ENCODING 8224
SWIDTH 527 0
DWIDTH 15 0
BBX 15 27 0 -6
BITMAP
000006DEC3000000
00000EFFFB000000
00001FFFFC000000
00001FFFFC000000
00001FFFFC000000
00001FFFFC000000
03544FFFFD355200
5FFFFFFFFFFFFE20
8FFFFFFFFFFFFF50
8FFFFFFFFFFFFF40
3EFFEFFFFFFFFC10
00101FFFFC011000
00001FFFFC000000
00001FFFFC000000
00001FFFFC000000
00001FFFFC000000
00001FFFFC000000
00001FFFFC000000
00001FFFFC000000
00001FFFFC000000
00001FFFFC000000
00001FFFFC000000
00001FFFFC000000
00001FFFFC000000
00000FFFFC000000
00000BFFF7000000
0000003430000000
ENDCHAR
STARTCHAR daggerdbl
ENCODING 8225
SWIDTH 527 0
DWIDTH 15 0
BBX 15 27 0 -6
BITMAP
000006DEC3000000
00000EFFFB000000
00001FFFFC000000
00001FFFFC000000
00001FFFFC000000
00001FFFFC000000
03544FFFFD355200
5FFFFFFFFFFFFE20
8FFFFFFFFFFFFF50
8FFFFFFFFFFFFF40
3EFFEFFFFFFFFC10
00101FFFFC011000
00001FFFFC000000
00001FFFFC000000
00001FFFFC000000
18AA9FFFFE9AA600
7FFFFFFFFFFFFF30
8FFFFFFFFFFFFF50
7FFFFFFFFFFFFF30
18BA9FFFFE9AB700
00001FFFFC000000
00001FFFFC000000
00001FFFFC000000
00001FFFFC000000
00000FFFFC000000
00000BFFF7000000
0000003430000000
ENDCHAR
STARTCHAR bullet
ENCODING 8226
SWIDTH 342 0
DWIDTH 10 0
BBX 9 9 0 4
BITMAP
007CEDA300
09FFFFFF30
1FFFFFFF90
4FFFFFFFC0
4FFFFFFFD0
2FFFFFFFB0
0CFFFFFF50
02BFFFE700
0001330000
ENDCHAR
STARTCHAR ellipsis
ENCODING 8230
SWIDTH 911 0
DWIDTH 26 0
BBX 25 6 0 0
BITMAP
00231000000132000000023100
0CFFF700006FFFC10001DFFF50
3FFFFD0000CFFFF40006FFFFB0
4FFFFE0000DFFFF50006FFFFC0
2FFFFD0000BFFFF40005FFFFB0
09EFE500004DFFA00000AEFC30
ENDCHAR
STARTCHAR perthousand
ENCODING 8240
SWIDTH 1223 0
DWIDTH 34 0
BBX 33 23 1 -1
BITMAP
000000000000000BB10000000000000000
001698500000006FF50000000000000000
04EFFFFD200000DFD00000000000000000
2EFFFFFFC00007FF500000000000000000
8FFFCDFFF4001EFC000000000000000000
CFF600BFF7008FF4000000000000000000
DFF3008FF801EFB0000000000000000000
CFF500AFF808FF30000000000000000000
9FFE9AFFF52FFA00000000000000000000
3FFFFFFFE19FF200000000000000000000
07FFFFFF52FF9000000000000000000000
004ACC930AFF2004652000000156510000
000000003FF804DFFFF900007FFFFE6000
00000000BFE12EFFFFFF8006FFFFFFF400
00000004FF709FFFFFFFE10EFFFFFFFB00
0000000CFE10EFF602EFF43FFE305FFF00
0000005FF700FFF100AFF64FFB000EFF10
000000DFD000FFF200BFF54FFC001FFF10
000006FF6000CFFB58FFF32FFF85AFFE00
00000DFD00007FFFFFFFD00BFFFFFFFA00
00007FF500000CFFFFFF5003EFFFFFE200
0000DFC00000018EFFC400002AEFEA2000
00005B3000000000100000000001000000
ENDCHAR
STARTCHAR guilsinglleft
ENCODING 8249
SWIDTH 383 0
DWIDTH 11 0
BBX 11 15 0 0
BITMAP
0000003A6000
000004EFF800
00004EFFFF30
0004EFFFFE10
004EFFFFF500
04EFFFFF5000
2EFFFFF50000
8FFFFF700000
4FFFFFD20000
07FFFFFE2000
007FFFFFE200
0007FFFFFD10
00007FFFFF30
000007FFFB00
0000006EA100
ENDCHAR
STARTCHAR guilsinglright
ENCODING 8250
SWIDTH 383 0
DWIDTH 11 0
BBX 11 15 0 0
BITMAP
019910000000
1CFFD2000000
7FFFFD200000
5FFFFFD20000
09FFFFFD2000
009FFFFFD200
0009FFFFFC10
0000BFFFFF40
0005FFFFFE10
005FFFFFE400
05FFFFFE4000
3FFFFFE40000
7FFFFE400000
2EFFE4000000
03DD30000000
ENDCHAR
STARTCHAR fraction
ENCODING 8260
SWIDTH 433 0
DWIDTH 12 0
BBX 14 23 1 -1
BITMAP
00000000000AB2
00000000005FF6
0000000000CFD0
0000000005FF60
000000000DFD00
000000006FF500
00000001EFC000
00000007FF4000
0000001EFB0000
0000008FF30000
000002EFA00000
000009FF300000
00002FF9000000
0000AFF2000000
0003FF90000000
000BFE10000000
004FF800000000
00CFE100000000
04FF7000000000
0CFD0000000000
5FF60000000000
CFD00000000000
4B400000000000
ENDCHAR
STARTCHAR Euro
ENCODING 8364
SWIDTH 612 0
DWIDTH 17 0
BBX 17 22 0 0
BITMAP
000000004788888500
0000005DFFFFFFFF40
000009FFFFFFFFFF60
00006FFFFFFFFFFF60
0001EFFFFFFFFFFF20
0007FFFFF965555200
000BFFFF8000000000
289FFFFFA999983000
8FFFFFFFFFFFFFC000
7FFFFFFFFFFFFFC000
159FFFFB6666652000
005FFFF90000000000
5FFFFFFFFFFFFE8000
8FFFFFFFFFFFFFD000
5EFFFFFFFFFFFE9000
000CFFFF4000000000
0008FFFFD200000000
0002FFFFFFEEEEDA00
00009FFFFFFFFFFF50
00001CFFFFFFFFFF60
000001BFFFFFFFFF50
00000004ADEEEEEA10
ENDCHAR
STARTCHAR trademark
ENCODING 8482
SWIDTH 840 0
DWIDTH 24 0
BBX 23 12 0 6
BITMAP
3ABBBBBBBA22AB400005B800
8FFFFFFFFF78FFE2004FFF40
8FFFFFFFFF69FFFC01EFFF60
189AFFFA9819FFFF7AFFFF60
0004FFF30009FFFFFFFFFF60
0004FFF30009FFFFFFFFFF60
0004FFF30009FFFFFFFFFF60
0004FFF30009FFEDFFBFFF60
0004FFF30009FFD2A91FFF60
0004FFF30009FFD0001FFF60
0002FFF10008FFB0000EFF50
000025200000441000025400
ENDCHAR
STARTCHAR minus
ENCODING 8722
SWIDTH 581 0
DWIDTH 16 0
BBX 16 5 0 5
BITMAP
0AEEEEEEEEEEEEB2
3FFFFFFFFFFFFFF7
4FFFFFFFFFFFFFF8
2FFFFFFFFFFFFFF6
0599999999999970
ENDCHAR
STARTCHAR f_f
ENCODING 64256
SWIDTH 803 0
DWIDTH 22 0
BBX 23 22 0 0
BITMAP
00000049AB70000059BB6000
00001CFFFFF4002DFFFFF300
0000CFFFFFF601DFFFFFF500
0006FFFFFFF608FFFFFFF400
000CFFFFFFD10EFFFFFFD000
000EFFFF42001FFFFE320000
000FFFFE00002FFFFC000000
19AFFFFF9AAAAFFFFEABA400
7FFFFFFFFFFFFFFFFFFFFE00
8FFFFFFFFFFFFFFFFFFFFF10
8FFFFFFFFFFFFFFFFFFFFF00
4FFFFFFFFFFFFFFFFFFFF900
012FFFFE12223FFFFC221000
000FFFFE00002FFFFC000000
000FFFFE00002FFFFC000000
000FFFFE00002FFFFC000000
000FFFFE00002FFFFC000000
000FFFFE00002FFFFC000000
000FFFFE00002FFFFC000000
000FFFFE00002FFFFC000000
000EFFFC00001FFFFB000000
0006EFD5000008EFD4000000
ENDCHAR
STARTCHAR fi
ENCODING 64257
SWIDTH 709 0
DWIDTH 20 0
BBX 19 22 0 0
BITMAP
00000048AA7000499710
00001BFFFFF401EFFF80
0000CFFFFFF602FFFFB0
0006FFFFFFF602FFFFB0
000CFFFFFFE100CFFF60
000EFFFF431000034200
000FFFFE000000000000
068FFFFF9BA4005AB810
5FFFFFFFFFFF11FFFF90
8FFFFFFFFFFF32FFFFB0
8FFFFFFFFFFF23FFFFB0
3FFFFFFFFFFB03FFFFB0
012FFFFE232003FFFFB0
000FFFFE000003FFFFB0
000FFFFE000003FFFFB0
000FFFFE000003FFFFB0
000FFFFE000003FFFFB0
000FFFFE000003FFFFB0
000FFFFE000003FFFFB0
000FFFFE000003FFFFB0
000EFFFC000001FFFFA0
0006EFE50000009EFD30
ENDCHAR
STARTCHAR fl
ENCODING 64258
SWIDTH 774 0
DWIDTH 22 0
BBX 22 22 0 0
BITMAP
00000048AA70006AA70000
00001BFFFFF403FFFF6000
0000CFFFFFF605FFFF8000
0006FFFFFFF605FFFF8000
000CFFFFFFE105FFFF8000
000EFFFF431005FFFF8000
000FFFFE000005FFFF8000
068FFFFF9BA405FFFF8000
5FFFFFFFFFFF15FFFF8000
8FFFFFFFFFFF35FFFF8000
8FFFFFFFFFFF25FFFF8000
3FFFFFFFFFFB05FFFF8000
012FFFFE232005FFFF8000
000FFFFE000005FFFF8000
000FFFFE000005FFFF8000
000FFFFE000005FFFF8000
000FFFFE000005FFFF9000
000FFFFE000005FFFFEB70
000FFFFE000003FFFFFFF2
000FFFFE000000EFFFFFF4
000EFFFC0000008FFFFFF3
0006EFE500000006BEFFB0
ENDCHAR
STARTCHAR f_f_i
ENCODING 64259
SWIDTH 1059 0
DWIDTH 30 0
BBX 29 22 0 0
BITMAP
00000049AB70000059BB6000377400
00001CFFFFF4002DFFFFF302FFFF50
0000CFFFFFF601DFFFFFF505FFFF80
0006FFFFFFF608FFFFFFF405FFFF80
000CFFFFFFD10EFFFFFFD001EFFF40
000EFFFF42001FFFFE320000255300
000FFFFE00002FFFFC000000000000
19AFFFFF9AAAAFFFFEABA400599600
7FFFFFFFFFFFFFFFFFFFFE03FFFF50
8FFFFFFFFFFFFFFFFFFFFF15FFFF80
8FFFFFFFFFFFFFFFFFFFFF05FFFF80
4FFFFFFFFFFFFFFFFFFFF905FFFF80
012FFFFE12223FFFFC221005FFFF80
000FFFFE00002FFFFC000005FFFF80
000FFFFE00002FFFFC000005FFFF80
000FFFFE00002FFFFC000005FFFF80
000FFFFE00002FFFFC000005FFFF80
000FFFFE00002FFFFC000005FFFF80
000FFFFE00002FFFFC000005FFFF80
000FFFFE00002FFFFC000005FFFF80
000EFFFC00001FFFFB000004FFFF70
0006EFD5000008EFD4000000AEFC20
ENDCHAR
STARTCHAR .notdef
ENCODING -1
SWIDTH 500 0
DWIDTH 14 0
BBX 1 1 0 0
BITMAP
00
ENDCHAR
STARTCHAR .null
ENCODING -1
SWIDTH 0 0
DWIDTH 0 0
BBX 1 1 0 0
BITMAP
00
ENDCHAR
STARTCHAR nonmarkingreturn
ENCODING -1
SWIDTH 333 0
DWIDTH 9 0
BBX 1 1 0 0
BITMAP
00
ENDCHAR
STARTCHAR f_t
ENCODING -1
SWIDTH 814 0
DWIDTH 23 0
BBX 23 22 0 0
BITMAP
00000049AB70000000000000
00001CFFFFF4000000000000
0000CFFFFFF603ACB4000000
0006FFFFFFF60AFFFE000000
000CFFFFFFD10CFFFF100000
000EFFFF42000CFFFF100000
000FFFFE00000CFFFF100000
19AFFFFF9AAA9EFFFFAAA600
7FFFFFFFFFFFFFFFFFFFFF30
8FFFFFFFFFFFFFFFFFFFFF50
8FFFFFFFFFFFFFFFFFFFFF50
4FFFFFFFFFFFFFFFFFFFFD10
012FFFFE12222CFFFF333000
000FFFFE00000CFFFF100000
000FFFFE00000CFFFF100000
000FFFFE00000CFFFF100000
000FFFFE00000BFFFF200000
000FFFFE00000AFFFFD97100
000FFFFE000006FFFFFFF700
000FFFFE000001DFFFFFF900
000EFFFC0000003EFFFFF800
0006EFD5000000018CEFC200
ENDCHAR
STARTCHAR t_t
ENCODING -1
SWIDTH 794 0
DWIDTH 22 0
BBX 22 20 0 0
BITMAP
0004BCA3000008BC810000
000EFFFC00004FFFF60000
000FFFFD00005FFFF80000
000FFFFD00005FFFF80000
000FFFFD00005FFFF80000
19AFFFFEAAAACFFFFCAA92
7FFFFFFFFFFFFFFFFFFFFA
8FFFFFFFFFFFFFFFFFFFFC
8FFFFFFFFFFFFFFFFFFFFB
4FFFFFFFFFFFFFFFFFFFF6
012FFFFD22336FFFF92310
000FFFFD00005FFFF80000
000FFFFD00005FFFF80000
000FFFFD00005FFFF80000
000FFFFE00005FFFF90000
000DFFFFB9604FFFFFA930
000AFFFFFFF41FFFFFFFE0
0003FFFFFFF609FFFFFFF1
00007FFFFFF400BFFFFFE0
0000039DFFB00006BEFE70
ENDCHAR
STARTCHAR l_l
ENCODING -1
SWIDTH 626 0
DWIDTH 18 0
BBX 17 22 1 0
BITMAP
39BA30006AB8000000
BFFFD003FFFF600000
DFFFF005FFFF800000
DFFFF005FFFF900000
DFFFF005FFFF900000
DFFFF005FFFF900000
DFFFF005FFFF900000
DFFFF005FFFF900000
DFFFF005FFFF900000
DFFFF005FFFF900000
DFFFF005FFFF900000
DFFFF005FFFF900000
DFFFF005FFFF900000
DFFFF005FFFF900000
DFFFF005FFFF900000
DFFFF005FFFF900000
DFFFF104FFFFA00000
CFFFFE73FFFFFFD600
AFFFFFF1EFFFFFFF00
5FFFFFF18FFFFFFF10
0BFFFFF00BFFFFFE00
007BDD70005ADEC500
ENDCHAR
STARTCHAR j_j
ENCODING -1
SWIDTH 521 0
DWIDTH 15 0
BBX 18 29 -4 -7
BITMAP
000001676100036740
00000AFFFB002FFFF4
00000DFFFE005FFFF7
00000DFFFE005FFFF7
000008FFF9002EFFF3
000000343000014410
000000000000000000
0000029A930006AA70
00000BFFFC003FFFF5
00000DFFFE005FFFF7
00000DFFFE005FFFF7
00000DFFFE005FFFF7
00000DFFFE005FFFF7
00000DFFFE005FFFF7
00000DFFFE005FFFF7
00000DFFFE005FFFF7
00000DFFFE005FFFF7
00000DFFFE005FFFF7
00000DFFFE005FFFF7
00000DFFFE005FFFF7
00000DFFFE005FFFF7
00000EFFFE005FFFF7
00004FFFFC006FFFF6
0357EFFFF814CFFFF4
6FFFFFFFF3CFFFFFF1
AFFFFFFF82FFFFFFB0
AFFFFFF902FFFFFE30
7FFFFD5000EFFFE400
057630000027751000
ENDCHAR
ENDFONT
